<mxfile host="app.diagrams.net" agent="Mozilla/5.0 (Windows NT 10.0; Win64; x64) AppleWebKit/537.36 (KHTML, like Gecko) Chrome/134.0.0.0 Safari/537.36" version="26.1.0">
  <diagram name="Seite-1" id="dVWk9UQRDBIjkL1t6ffV">
    <mxGraphModel dx="2074" dy="1098" grid="1" gridSize="10" guides="1" tooltips="1" connect="1" arrows="1" fold="1" page="1" pageScale="1" pageWidth="827" pageHeight="1169" math="0" shadow="0">
      <root>
        <mxCell id="0" />
        <mxCell id="1" parent="0" />
        <mxCell id="hE5iUYHQlxyRtZsjtgI_-16" value="" style="rounded=1;whiteSpace=wrap;html=1;dashed=1;dashPattern=8 8;" vertex="1" parent="1">
          <mxGeometry x="410" y="650" width="390" height="230" as="geometry" />
        </mxCell>
        <mxCell id="hE5iUYHQlxyRtZsjtgI_-1" value="Load Balancer" style="image;aspect=fixed;perimeter=ellipsePerimeter;html=1;align=center;shadow=0;dashed=0;fontColor=#4277BB;labelBackgroundColor=default;fontSize=12;spacingTop=3;image=img/lib/ibm/vpc/LoadBalancer.svg;" vertex="1" parent="1">
          <mxGeometry x="120" y="38" width="60" height="60" as="geometry" />
        </mxCell>
        <mxCell id="hE5iUYHQlxyRtZsjtgI_-4" value="IoT Device" style="shape=image;verticalLabelPosition=bottom;verticalAlign=top;imageAspect=0;aspect=fixed;image=data:image/png,iVBORw0KGgoAAAANSUhEUgAAAE0AAABwCAYAAABb7f3DAAAAAXNSR0IArs4c6QAAAARnQU1BAACxjwv8YQUAAAAJcEhZcwAADsMAAA7DAcdvqGQAABqeSURBVHhe7Z15VFNn/v/fNxvJTQgQFiHsijAgioqiRW0RR8StqGMrtjNUT5k6dSueqtXajnO06pnpjNpqF6du4FLB1tHjCI4eO61WXJgiKHVFZBUIYUkCZM/z+2OS+yU3iIAEnf58nfP8wb2f+9ybd57l8zyfzw0UIYTgOT2Cwz7wnMfzXLRe8Fy0XvBctF7wXLRe8Fy0XkA9Ky4HIQS1tbVoa2uDVquFXq8HAIhEIojFYgiFQri7u0MkErEv7Xeeqmi2W2dlZeHEiRN4+PAh9Ho9tFotDAYDLBYLRCIRaJqGQCCASCTCrFmzMHv2bAQEBICiKHaV/cJTEa2trQ1FRUX4+uuvce7cObS1tcHV1RUURYHD4YDD4YCiKFAUBYvFwhRCCNra2lBRUYHf//73SEhIwKRJkzBgwAD2LZxKv4t2584drFu3DpcvXwZN04xYNggh0Ov1TCvkcDjgcrng8Xh2Nq2trVCr1QgODsamTZswadIk5ryz6TfRtFotDh8+jPT0dERERICmaXA4/52HCCFQq9VobW2FXq9HeHg4pFIpaJpGdXU1WltboVQqIZPJIBQKIRAI7OqtrKzE8uXLsWjRIgQFBXW4q3PoF9E0Gg3mzJmDmzdvwtvbm2k1Wq0WGo0GVVVVWLduHaZPn46hQ4fadVGz2QxCCB48eIDdu3fj3LlzaG5uhlQqhUgkAkVRIISgpaUFKpUK+fn5CA8PZz9Cn+J00ZqamvDuu+/izJkz8PX1ZT5kbW0thg0bhvnz52PatGnw8vJ67MBua5EXLlxAVlYWzp8/Dx8fH6blaTQaeHt74+9//zuioqLYl/cZThdtyZIlOHLkCEJDQwEARqMR169fx9atW5GRkfFYoR4FIQT79+/H5s2bwePxIBaLAQDNzc0Qi8W4cuWK09wTpzq3tq4lk8lACIFGo0FDQwOOHj2Kd95555GC2cap8vJytLW1sU8DACiKwsKFC3H48GHw+XxoNBoQQkDTNAghaGhoYF/SdxAnk52dTQCQgIAAEhUVRRQKBduEmEwm0tzcTLZt20aSk5OJRCIhXl5exMvLiwiFQjJv3jzy9ddfk+bmZmI0GtmXE7PZTObMmUPkcjmRy+Vk6dKlbJM+xendEwAuXbqE+vp6jBo1CgEBAXbnKioqsHfvXmRlZcFiscDV1RUuLi52NjqdDiqVCjKZDJMnT8bKlSvh5+dnZ1NfX4/CwkKIRCIMGzYMMpnM7nxf0i+iPYq8vDxMmzYNAwcOhKurq50v1hkGgwFarRalpaXIzc1FcnLyI7u4M3lqoh04cADvv/8+ZDIZ+Hw+YJ0kjEYjWltbYTabweVyAQASiQR8Ph88Hg8URcFgMKCtrQ07d+7E1KlTWTU7n6ci2s8//4z4+HgEBQUxXbGlpQU0TSMkJASpqanw9/eHWq1GS0sLjh49ivv378NoNDIrCIPBgBs3bqC+vh4+Pj7sWzgX1hjXLxQUFBB/f38ybNgwMnz4cELTNFm8eDG5e/cu0el0bHPS2tpKiouLyapVqwiPxyMxMTFkxIgRxNXVlVy9epVt7nSeimgtLS1kwYIFxNvbm8hkMvK3v/2NWCwWtpkDFouFbN26lfj7+xMvLy+Snp7erev6mqfSPWHtjvfv34dYLMbAgQPt1pNdYTAYUFFRgaamJkRFRcHV1ZVt4nSemmj/yzh1RfBLhbJ20/87wPJ7nrQhsuvDE9bZ1/X1BmrVqlXEbDYzByQSCVJTUxlX4NNPP2X8pd7A5XLxq1/9CgkJCQCAyspKnDhxgtlL6ylcLhczZsxgVhY//vgjioqKOhXTWVAikYj4+/uDoiiYTCZIpVLk5+czC9+IiAj2NT2ivr4eS5YswaZNm0BRFL777ju7D91T7t27h6KiIsTExAAAtm/fjhUrVmDw4MFsU6fB8fDwgFQqhVQqhVgsdljKcDgc5nxvSmeOp0wmc7DrbvH29mZXh+DgYAc7W+Hz+X1SaJpm6uxdH/kfQalUIiQkBEOGDHmiEhISAovFAoPBAACg5HI5se2o6vV6uLi44Pz580z3jIyMhEQiYT9Pt1GpVHjllVfsumdaWhp8fX3Zpt2isrISZ8+eteue27dvh5eXl52dWq3G1KlTsX37drvjvSU7Oxt//OMfIRaLf7ktrampCYsXLwZlDQU+aYmLi4NEIoHZbP7limY0Gvt0T43L5YLL5YIQ8ssVzZk8F60X9Fo0o9GIhoYGVFVVoaKiAo2NjTCZTGyzbqHRaKBQKFBVVQWFQgGtVss2eabolWgGgwE6nQ5r165Fbm4uzp8/j0WLFkGtVkOn07HNu6SyshJjx47Fjh07cPr0afz1r39FcHAw6urq2KbPDI8VzWw2Q6VS2ZUbN25g3759WLRoEWJjYxEZGYmVK1fi2LFjPWpxCoUCb7zxBnbu3ImUlBSMGDECr776Kg4dOoTp06ejtLTU4d6dheYqKioc7NRqNdusz+gykkFRFF577TVQrHVdQkIC4uPj7Y7xeDwMGzYM7733Xqd+ExutVovIyEhs2bLFYRXi4eGBjRs3Qi6XOyzGKYpCSEgI83dkZCTWr19vZwPrIr6z1UOfIJfLyciRI0lsbCyJjo4msbGxpK2tzW6nsif84x//IEFBQSQ2NpbExsaSsLAwsnbtWmaH9dy5c8Tf35+EhoaSLVu2PJWd195QXl5ORo0aRaKjo8lju2dPCQgIYLIYu4LD4TDLkv81HitaXV2dQ6mvr2ebMdy7d69bW9dcLhcKhcKh+3WkubnZ4d49KU1NTewq+4THijZjxgxER0czxc/PDytWrEBtbS3bFDqdDocPH+7Wvj1N0zh16hTy8/PZpwAAe/bsgUwms7t3T4qfnx867hP2JV2KRqwZh8HBwUwZOXIkzp07h6VLl6KqqgrWiBZqamqQlJSEmzdvQigUsqtygMvlQiKRICkpCd9++y1Tj9lsxu7du5Geno4RI0bY3bsnRSqVsm/ZZ3Qpmg324jUwMBA3btzAlClT8Ic//AGpqakYO3YslEol3N3dHWbbR+Hi4oKIiAgsW7YM06dPxxtvvIE5c+Zg3bp1GDFihF3ubU+LM+mWaJ1h2+D7/vvvUVJSAi8vL9A03eMH5nK5kMvlqKioQEFBAUpLSxEYGNjr7fD+4ImejM/nw9XVFSKR6IniCOjwvoCzEvH6kicSDVYnVavVOm3QbW9vh1ar7fYqoz/otWhqtRp3797FkCFDEBoaCp1O1+N1Z1dotVr89NNPGD58OEJDQ5lsomeBXolWVlaG5ORkNDU1ITs7GydPnsTmzZuhUqmg0WjY5j1GqVTCy8sLVVVVOHToEE6ePImDBw9CLBajubmZbd4pUqkU165d69IP7Ak6nQ4Wi+W/E01PYwRqtRrjx4/Hjh07mORgGyUlJVi4cCF0Oh0TN+0sRpCamorAwMBOJ422tjYMHjwYBw4cgJubm925yspKzJ49G3q9/rFujVarhZeXF377299i4MCB7NM9QqPRYNeuXSgrK/tvqldPRDObzVAoFLh27VqnoTmLxYIPP/wQOTk5zAdWq9VISUnBn//8Z3A4HDQ2NuI3v/kNampqIJVK7YQzm83QaDTYv38/xo8f36Hm/2Pv3r3YsGEDPD09OxW9I7b3FCwWyxPPxrYJDz3tngaDAeHh4Q45sTY4HA6GDx9ut/bk8/m4desWMx55enoiMzMTUqnUoasRQuDi4tLlu06RkZHg8XiwWCzsUzAYDGhuboZCoUB9fT2MRiM8PDzg6+sLb29vu+Lh4cF8DovFAh6PBzc3Nwc7b29v+Pj42M3qnJ66CrY090ehUqns/hYIBLh16xZOnjwJo9EIWIO7Z86cQVBQkIO9xWJh7DrDNpOyW45arYbRaMSCBQvw5ZdfYs+ePUhMTITZbIbRaLRzfPV6PXQ6HV5++WV89tlnyMzMxKJFi8DhcKDRaB7rKHM8PT3tDnQ0oigK/v7+zPazi4sLysrKUNfFrqqrqyuqqqqYlmBbLi1atAi7du1iXBNPT098/vnn4PP5TIvTarUoLy/vcrzKz88Hl8u1e06tVguxWIy8vDy8//77mDZtGpKSkrBjxw6sWrUKt27dYr5ok8kEtVqNb7/9Fps3b8bMmTMxadIkrF69Grt374ZQKHzsLg03MDDwT4QQUNb3kLhcLtLS0pimS1EUjh49CqlUyjiw169fR1xcXKdLpujoaJhMJnz//fdMfiyXy4WbmxtOnjyJsLAwDB48GFwuF97e3khOTsaZM2dQXl4ODw8P/POf/0RkZKRdnbC28KtXr+L1119HaGgoc19CCFQqFdavX48JEybYtUAul4uYmBjo9XoUFhZCKBRCo9Fg7ty5mD9/PvjWBGl0aCACgQCnT5/uMkDO5fP5f+q4/DEYDHjhhReYBJUhQ4YgICAAX375JXx8fCAUClFWVobvvvsOAQEBcHV1RXl5OTgcDmiaBgC8+OKLaG1txalTpyCTyRjhaJrGgQMHEBwcjOjoaFAUBZlMhtDQUJw4cQK7du3CCy+8wDxcZWUl9Ho9WltbsWXLFmzZsgX+/v4Oqw+1Wo2MjIxOo/YURcHFxYXZfVGpVF0mzAwYMACHDh0Cl8t1GAJscDqOHzweDyaTCRs3bkR5eTlzLC0tDZmZmbh37x7MZjM8PT3R2NiIN998E+Hh4Rg9ejTS0tJQU1PDXLNx40YsW7YMCoWC6aoCgQCBgYH44IMPcOHCBWYTMjExEfn5+UhMTGSe5ezZs4iIiEBYWBgiIiKQk5MDFxcXu9Zhw2QygT3MdISmafD5fOZFW3bv6IhIJIJEIul0orHhIKVEIsHt27cxa9YsVFVVMcdff/11fPHFFygqKmJekx4wYADCwsIQFRWFu3fvIikpCe3t7cw1H3zwAaZMmYLy8nLmIVxcXCCRSJCQkIBLly4xY01wcDBzXV5eHpKSkhAWFobw8HCEhYXB3d29U8FgrbO6upp9mKGhoYFxOzgcTpebqLW1taiurn7kvQCA6+rq+ieJRGKnvkgkglqtxo8//oj4+HjIZDJwOBzExMQgKCgIWVlZDn6SUCiEWq3GrVu3MHnyZPD5fAgEAvz617+GUqlkXsGhKAo8Hg9SqRQ//PADxowZY9et2tvbkZGRwaQ3PQ6KomA0GiEQCDBmzBiHXePa2lq88847MJvN4PP5oCgKCoUCkydPdqhfo9Hg3XffhVqtfqRbhUeJBqsItbW1OH78OGbNmsUMjDExMRAKhcjKyoKfn5/ddTRNo6CgANeuXcPMmTMZ4RISElBcXIzCwkK4ubmBoigIBAK0t7fjo48+QkpKCvOuE4/Hg1wux7Zt2+Dt7e0wfnWGi4sLTpw4AYFAgFGjRjGtRKlUIiUlBdXV1YyzzePxUFpaiqKiIiQnJzPimEwmvP322zh79uxjo1iPFA1W4VpaWlBYWIhx48YxHnx8fDzMZjMuXbrksIcmlUpx584d1NXVYfz48RAIBODz+UhOTkZ1dTWKi4uZFsfn8+Hu7o7c3FzExcUxX8LAgQMRHx+Pb775Bnw+/7HCURQFT09P5ObmIiEhgenqBw4cwPHjx+1ePqMoCjRNo7CwEBKJhJl4Ll++jDVr1iAsLIyxfRQOYxobmUyGgoIC/O53v0NLSwtzfMOGDRg1apTD+EBRFHx8fHDw4EGkp6czPp5YLMaWLVsQGxtrF1ChaRo6nQ4jR45EcXExU09SUhL+8pe/4Pr1693adqKsMzGbzroZRVFMi+8Ie637KBxEM5vN0Ov1UKvVjPft7e2N0tJSrF69mhnoKYpCVlYWpk+fzvwISXt7OzMjBgQEID8/H2vWrGFedPXw8MBXX32FuLg4NDY2MpMDTdOIjIzEkiVLcOfOHeZZXnnlFezcuRMPHjxAQ0MDlEoltFptlzNbf2DXPW2/viIUCjFlyhRQFIXa2loQQuDm5oaLFy+itLQU06ZNA4/Hg0AgwMSJE3Hr1i0EBQXB19cX9fX1UKlUcHFxgVgsxunTp2EwGBAfH88M7rGxsbh8+TJqa2shFAqZrtrc3IxPPvkEaWlpjGM8evRomM1mJCYmYuzYsXj48CFqa2vBteaL2SCEQKfTYfbs2Uz3/Omnn3DhwgWH3RhYVxFjxoxhumdVVRU++eQT8Hg8tLW1dVmYXQ6dTgc3Nzds374dMTExTLP+z3/+gw8//BAVFRUQCoVoaGjAvHnzsGHDBofZB9YMRNsSxd3dHbDGTtPT07FmzRrmA5SWlmLZsmW4f/++XeRIo9Fg0KBBOHLkSKcRJb1ej7Nnz2LlypUQCoVMSoPFYkFLSwsyMzMxYcIEAMCuXbuwefPmTgf2xsZGLF++HCtWrACseSVXrlxhm3UK19XV9U9isRhqtRpbt27Fiy++aJdbIZfLIZfLkZOTA5qmIRaLcezYMRiNRgdbWN2VoUOHoqSkBGVlZRAKhRCLxcjJyUF4eDgiIiLA5/Mhk8kwevRo7N+/H0ajkVlv2nyuzMxMzJ8/3yFmwOPxMHjwYFRXV+P69evMdb1paXFxcUxLE4vFiIiI6FbhwDqOcblch6QWGxMnTsSECROg0+nA4XAwYsQI7N69GyUlJWxTwOr5v/rqq8z4Z1sDrlu3Djk5OcwYFxERgR9++MFuUwAA3N3doVKp7CaGjlAUhZkzZ8JsNvd6fOPz+aisrOzV9RxYfZTY2NhOvxFYHzImJoaJAdhmna52RP38/GAymZhZksfjwdPTEwsWLMCpU6eYhw0ODsagQYPsZkhCCPh8/iOfB9b6ORxOl9tUXUHTNHJzc3H06FHcuHGjR4UDa0u4fft2l4ERtVrNDLyUdZ+psbGRbcbQ2trq0HX5fD6ioqLw8ccf2y232FDWH2bqqv66ujpYrHv2vYHH44GmaaxatQqJiYk9KoxoGo0G165dY9cNWF/V2bRpk93A7O3tjfXr13caWrNYLMjLy2Nmxo7YouZdtRCKoiASiXDw4MFHZhadP38esNbXW3g8Hnx8fBxSGh5XOLDeWCQSYe3atVAqlXYVq1QqvP3224iIiLATQCKRIC8vD0ePHrUTgBCC/Px85OTkdNm9HodEIsG//vUvbNq0yU44Qgg+/fRTbNu2rdvOaF/DfE00TaOiogJTp06FQqFgDDIyMnD58uVON+UGDhyIJUuWID09HdnZ2cjNzcVbb72Fl19+GeJO3rPqKSEhIdi3bx9eeukl7NmzB1999RWWLVuGDRs2QC6Xd2t5ZTQamZhsXxStVmsfjTIajbBYLMjNzUVgYCAIIZg4cSIaGxs7XY7YaG1tZcYo234Uu1va0Ov1EIlEOHfuHFxdXUEIwZtvvon8/PxOvxh0iCpRFAWhUNhp/Z35aXv37sU333zjYPukOIhGCMGpU6cY0RITE6FUKrsUrSf0RrTu0JlozqL3o+gzSF+3qEfxixGNY/0ZxH379uHBgwfQaDROK7+Y7mlDo9E4LdfWxi9ONPTDDwFw0MHDtxU27PNPWjqDbfMkxRZAcVqxtSBiDW1xuVwolUpUVFSguroa9fX14PF4INZE4ictHA4HfD4fdXV1qKioQFVVFbPkYts+q4UCQIKCgkBZW4DFYrEL3Tkj/9VsNtuF3Pz8/ByiSM8yFAAyaNAgRjSwxoSOx/uS/riHs6AAkM52YJ/zaKgjR46Qjt/6cx7P81+16gV9O8L/f8JTFa2zDczu0lW2pLN5aqLdvn0bCQkJmDt3LpPW1R0qKiqQlpaGqVOn2rlG/Qr7Ddr+QKFQEAAkPDycBAUFkfHjx5Pi4mJiMBjYpgwmk4kUFhaScePGkZCQEBIZGUkAkNraWrap03kqLa2mpgahoaGgaRre3t5QKpWYMWMGVq9ebZfnYfPA79+/j5UrV2LWrFlobGyEp6cnRCIRvLy8usxLcxZPZfZUKBRISUlBXV0dk8FoMpnQ1taG5uZmTJw4EX5+flBb/7HDxYsXIZFI7LbQGxoa4OPjgwsXLjAB4/7iqYgGa27vzJkzUVRUBF9fXyanzGKxQK/XM2nvHA4HLi4uzFLOZDKhtrYWCQkJ2L9/v0MEvj/oF9EIIWhvb3eITtXV1eHw4cP4/PPPQVEUk/QC1tKKEAKLxcJkJb322mtYvny5w0saFosFJpPJ+etY9iDX19TX15OUlBQCgBw7dqzTwb6mpoYsXLiQeHp6kuDgYBIcHEyCgoJIUFAQCQwMJEFBQcTX15ekpqaSsrIy9uXEYrGQ7Oxs4uPjQ2bOnEkePnzINulTnNrSDAYDli5diry8PCYjPCMjA4sXL3boVoQQVFdX4/bt22hubmaSiz09PSGXyxEWFga5XO6w46LX6/HRRx8hOzsbNE2jvr4eKSkp2LFjB9Pl+xy2in2JSqUiycnJJCIigsTGxpKYmBgCgKxevZqo1eon+iETi8VCVCoVycjIIAKBgMTExJDY2FgSFRVFRo0aRbRaLfuSPsOpLodUKkVqaiqMRiPa29vB4/EQGxuLw4cPY+7cuThy5IjDS2XdgRCCzMxMJCQk4Pjx4xg6dCh41ncgbt68iVWrVjl1RnVq97TxxRdfYNu2bUzSCawBYIVCgXHjxuGtt97CyJEj4ebmBr71/w50xGQywWg0oqWlBadPn0Z2djaKi4vh6enJiKPT6fDw4UPs3LkT8+fPd+oeXb+IZjKZcPHiRcybNw/u7u6gO/yjrfb2dqhUKvj4+CAiIgLu7u6IjIxkbGpqalBTUwOVSoWSkhK0tLTAzc2NGRPNZjN0Oh1u376NK1eu2GVxOot+Ec1GQUEB1q9fj5KSEkgkErv0U4PBwKRF6K3/1o0QAoFAwLynZEuvt2G2vlTr7++PHTt2YNiwYcw5Z9KvosGa95Gfn4+PP/4YP//8M9zd3cGzJj13B5PJBL1eD4PBgLKyMpw8eRIvvfRSt36qp6/od9FsEELw2Wef4d///jfu3buHpqYmiEQi8K2v4ti6n8lkglarZRxkPp+PuLg4REdH47333uu22H3JUxPNRnt7O5RKJQoKClBYWIjKykq0trbi6tWraGlpwciRIzF8+HCIxWJMnDgRgwcPhlwud+rs+DieumiPwpaE7DQH9Ql4ZkV7lnGqc/tL5bloveC5aL3guWi94LloveD/AYxFYp2awvezAAAAAElFTkSuQmCC;dashed=1;dashPattern=8 8;" vertex="1" parent="1">
          <mxGeometry x="434" y="721" width="56.38" height="82" as="geometry" />
        </mxCell>
        <mxCell id="hE5iUYHQlxyRtZsjtgI_-7" value="Lightbulb" style="sketch=0;outlineConnect=0;fontColor=#232F3E;gradientColor=none;strokeColor=#232F3E;fillColor=#ffffff;dashed=1;verticalLabelPosition=bottom;verticalAlign=top;align=center;html=1;fontSize=12;fontStyle=0;aspect=fixed;shape=mxgraph.aws4.resourceIcon;resIcon=mxgraph.aws4.lightbulb;dashPattern=8 8;" vertex="1" parent="1">
          <mxGeometry x="534.19" y="780" width="60" height="60" as="geometry" />
        </mxCell>
        <mxCell id="hE5iUYHQlxyRtZsjtgI_-8" value="Alexa voice&#xa;service" style="sketch=0;outlineConnect=0;fontColor=#232F3E;gradientColor=none;strokeColor=#232F3E;fillColor=#ffffff;dashed=1;verticalLabelPosition=bottom;verticalAlign=top;align=center;html=1;fontSize=12;fontStyle=0;aspect=fixed;shape=mxgraph.aws4.resourceIcon;resIcon=mxgraph.aws4.alexa_voice_service;dashPattern=8 8;" vertex="1" parent="1">
          <mxGeometry x="534.19" y="681" width="60" height="60" as="geometry" />
        </mxCell>
        <mxCell id="hE5iUYHQlxyRtZsjtgI_-9" value="" style="shape=image;verticalLabelPosition=bottom;labelBackgroundColor=default;verticalAlign=top;aspect=fixed;imageAspect=0;image=data:image/png,iVBORw0KGgoAAAANSUhEUgAAAGEAAABmCAYAAADbA/8bAAAAAXNSR0IArs4c6QAAAARnQU1BAACxjwv8YQUAAAAJcEhZcwAADsMAAA7DAcdvqGQAAAexSURBVHhe7ZzfS1N/GMffs+lGatDFxMJAJlnaWkIFEhh4IURXgpBR2m0XXUUkmrpNsh+3hQVRZCr+BdWF3pmgCFG0bmpzuxlkpC6I2k93nu+NZ+x8ztRN53fP0c8Lnpvn+exsfl4++5x9zs5MRESQFJUSMSH5/5ESGCAlMEBKYIBhJSQSCbjdbgwMDCCRSIhlY0EGRFEUcrlcZLVayWKx0MDAACmKIg4zDIaTEI/Hye12EwBNDA4OUiwWE4cbAkNJUDvAYrHoJBi5IwwjIZlMZu0AMVwuFyWTSfHhrDGMhMHBwawdIIbFYqH+/n7x4axhLyGVSpHH49FN9lbhcrkolUqJh2MJawmKotC9e/fIbDbrJnmrMJvN1Nvba4g1grWE7XSAGC6XSzwsO1hKSKVS1Nvbq5vQ7cbdu3dZvzWxk6AoSkE6QAy32832rYmVhLW1tYJ2gBg9PT20trYmPm3RYSVhaGiISkpKdJOXGdeuXdPl1Lh+/boulxklJSXk8XjEpy06LCQkEgnq6+vTTZoYDx48IJ/Pp8ur4fP56NGjR7q8GD09PZRIJMSXUTSKLkFRFBoaGqKysjLdZGVGf38/RaPRLSXEYjEaGBjQ1TKjrKyMPB4PmzWiqBLW1tbI5XLpJkmM4eHh9IRtJsHv9xOti3348KGuLsbg4CCLNaLo1xNqa2tRUVEhptO4XC7cuXMHJpNJLG2IyWTC7du34fF4xFKaiooK1NbWgsX3HEQrxeDNmzd08OBB3X9qZgeo5NIJmWTrCKvVSqOjo+LQosFCQiKRoNHRUaqsrExP1P379ykSiYhD85YQiURoeHg4PaayspJev34tF+ZsKIpCr169ovLycnK73Rt+ws1XAmVsApaXl9PLly913VVs2Eig9WsG8/PzFI1GxVKa7UggIopGozQ/P8+qA1SKvjBnYjab0dzcDKvVKpZ2jNVqRXNzM0pLS8VS0WElYb8iJTBASmCAlMAAKYEBUgIDDCfBbDajuroaR44c0UR1dTUOHDggDjcEJmKxg7W/MVwn7EWkBAZICQyQEhigWZj//fuHP3/+aEdICsqhQ4dQXl6uyWkkTE5Owu12awZICovH40FXV5c2mbmv/ezZM90evYzCxsjISOaUE3G7nrBfkRIYICUwQEpggObs6Pnz57h165Z2BIALFy7gxYsXYlqyCTdv3sTc3JyYxsjIiH6OM1fpjc6O2tra2H1NhDOKolBbW5tuHuXZEWOkBAZICQyQEhggJTBASmCAlMAAKYEBUgIDpAQG5CRBURSkUinE43EZOUQqlYKiKOI0bkhOG3gVFRU4duxYXndQ7meICKFQCH///hVL29/Ak1G4kBt4TJESGCAlMEBKYIDm7Ojjx494//697iwoEAhgfHxck1Pp6+vblVtejUA0GsXjx4/FNADgxo0bqKur0+SICJcvX8b58+c1+ZxuJp+amtKt8mqsrq7uy0ufiqLQ6uqqbj7UmJqaEh+yITm9HYmdkYnJZNq0vlcp5N+dkwTJ7iIlMEBKYIDhJMTjcXi93qwRj8fF4YbAcBJCoRDOnDmTNUKhkDjcEBhOwl6849dwEvYiUgIDpAQGSAkMkBIYwE5CMpkUUwVjN4+9E1hJCIfDaGlpQTAYFEs7JhgMoqWlBeFwWCwVHTYSlpaW0N3djYWFBXR2dsLv94tDto3f78fVq1exsLCArq4uLC0tiUOKi7i3nY3p6Wndfrka4XBYHJ43Kysr5HQ6NcctLS2lQCAgDs37x2mDwSCVlpZqxjmdTlpZWRGH5k04HNa9BjUKfj1hN/n58ye6u7vh9Xo1+WQyic7OTiwuLmry+RAIBHDlyhXdWuD1enl1hGglG7vVCdFolFpbW3XHzAyr1arpiFw7IRgMZv0l+sxobW3N+qPoubInOsFiseDp06c4ffq0WEoTi8XQ0dEBn88nlnSo+0qLi4vo6OhAJBIRh6RxOBx48uQJj+vjopVs7FYnqHz//p3q6up0x84Mm81Gi4uLm3aCz+ejQCBANptNV8uMuro6+vbtm/gy8mZPdILK8ePH8e7du007Ynl5Ge3t7ZueNfn9frS3t2N5eVkspXE4HHj79i3q6+vFUvEQrWRjtztBxev1btkRVqtVl8ulhvUO+PLli/i022ZPdYKKw+HA9PQ0HA6HWEoTi8XEVJrNauqxN+u2YsFKgslkgt1ux8TEBOx2u1jeNna7HePj47Db7QX7mkohYSVBpampCTMzMzh16pRYypvGxkbMzMygqalJLLGBpQQAqKmpwdjYmO6rhPlgt9sxNjaGmpoalh2gwlYCAJw9exZzc3NoaGgQS1ty8uRJzM/P49y5c2KJHawlAEBVVRUmJiZw4sQJsbQh9fX1mJiYQFVVlVhiCXsJWO+IDx8+5CSivr4es7OzhugAFUNIAACbzYbJyUk0NjaKpTQNDQ2YnJyEzWYTS6zJ6af74/E4fv/+LaaB9beLkpL/z+WPHz9w8eJFBAIBTd5ut2N2dhZHjx7V5HcTRVHw69cvMQ0AOHz4MCwWi5jOjvjpjTuKotDnz5/J4XCkP502NjbSp0+fDHufRE6dwJFAIIBLly6BiDA1NbWjU9liY1gJAPD161cQEZxOp1gyFIaWsFf4DyQ8Hw3rw+JsAAAAAElFTkSuQmCC;dashed=1;dashPattern=8 8;" vertex="1" parent="1">
          <mxGeometry x="696" y="675.77" width="67" height="70.45" as="geometry" />
        </mxCell>
        <mxCell id="hE5iUYHQlxyRtZsjtgI_-10" value="" style="rounded=1;whiteSpace=wrap;html=1;dashed=1;dashPattern=8 8;" vertex="1" parent="1">
          <mxGeometry x="80" y="240" width="490" height="350" as="geometry" />
        </mxCell>
        <mxCell id="hE5iUYHQlxyRtZsjtgI_-12" value="Smart Office Web Client" style="sketch=0;outlineConnect=0;fontColor=#232F3E;gradientColor=none;fillColor=#232F3D;strokeColor=none;dashed=0;verticalLabelPosition=bottom;verticalAlign=top;align=center;html=1;fontSize=12;fontStyle=0;aspect=fixed;pointerEvents=1;shape=mxgraph.aws4.client;" vertex="1" parent="1">
          <mxGeometry x="300" y="30" width="78" height="76" as="geometry" />
        </mxCell>
        <mxCell id="hE5iUYHQlxyRtZsjtgI_-13" value="" style="endArrow=classic;html=1;rounded=0;entryX=1;entryY=0.5;entryDx=0;entryDy=0;" edge="1" parent="1" source="hE5iUYHQlxyRtZsjtgI_-12" target="hE5iUYHQlxyRtZsjtgI_-1">
          <mxGeometry width="50" height="50" relative="1" as="geometry">
            <mxPoint x="400" y="188" as="sourcePoint" />
            <mxPoint x="450" y="138" as="targetPoint" />
          </mxGeometry>
        </mxCell>
        <mxCell id="hE5iUYHQlxyRtZsjtgI_-14" value="" style="endArrow=classic;html=1;rounded=0;entryX=0.49;entryY=-0.006;entryDx=0;entryDy=0;exitX=0.5;exitY=1;exitDx=0;exitDy=0;entryPerimeter=0;" edge="1" parent="1" source="hE5iUYHQlxyRtZsjtgI_-1" target="hE5iUYHQlxyRtZsjtgI_-10">
          <mxGeometry width="50" height="50" relative="1" as="geometry">
            <mxPoint x="390" y="310" as="sourcePoint" />
            <mxPoint x="440" y="260" as="targetPoint" />
            <Array as="points">
              <mxPoint x="150" y="160" />
              <mxPoint x="320" y="160" />
            </Array>
          </mxGeometry>
        </mxCell>
        <mxCell id="hE5iUYHQlxyRtZsjtgI_-15" value="Application" style="text;strokeColor=none;fillColor=none;align=left;verticalAlign=middle;spacingLeft=4;spacingRight=4;overflow=hidden;points=[[0,0.5],[1,0.5]];portConstraint=eastwest;rotatable=0;whiteSpace=wrap;html=1;" vertex="1" parent="1">
          <mxGeometry x="450" y="220" width="80" height="30" as="geometry" />
        </mxCell>
        <mxCell id="hE5iUYHQlxyRtZsjtgI_-17" value="" style="endArrow=classic;html=1;rounded=0;exitX=0.488;exitY=0.999;exitDx=0;exitDy=0;entryX=0.003;entryY=0.481;entryDx=0;entryDy=0;entryPerimeter=0;exitPerimeter=0;" edge="1" parent="1" source="hE5iUYHQlxyRtZsjtgI_-10" target="hE5iUYHQlxyRtZsjtgI_-16">
          <mxGeometry width="50" height="50" relative="1" as="geometry">
            <mxPoint x="390" y="970" as="sourcePoint" />
            <mxPoint x="110" y="920" as="targetPoint" />
            <Array as="points">
              <mxPoint x="320" y="760" />
            </Array>
          </mxGeometry>
        </mxCell>
        <mxCell id="hE5iUYHQlxyRtZsjtgI_-19" value="" style="rounded=1;whiteSpace=wrap;html=1;dashed=1;dashPattern=8 8;" vertex="1" parent="1">
          <mxGeometry x="124" y="645.99" width="150" height="130" as="geometry" />
        </mxCell>
        <mxCell id="hE5iUYHQlxyRtZsjtgI_-20" value="" style="endArrow=classic;html=1;rounded=0;entryX=0.5;entryY=0;entryDx=0;entryDy=0;" edge="1" parent="1" target="hE5iUYHQlxyRtZsjtgI_-19">
          <mxGeometry width="50" height="50" relative="1" as="geometry">
            <mxPoint x="199" y="593" as="sourcePoint" />
            <mxPoint x="580" y="720" as="targetPoint" />
          </mxGeometry>
        </mxCell>
        <mxCell id="hE5iUYHQlxyRtZsjtgI_-21" value="Main Database&amp;nbsp;&lt;div&gt;(Workspace&amp;nbsp;&lt;span style=&quot;background-color: transparent; color: light-dark(rgb(35, 47, 62), rgb(189, 199, 212));&quot;&gt;Data,&lt;/span&gt;&lt;/div&gt;&lt;div&gt;&lt;span style=&quot;background-color: transparent; color: light-dark(rgb(35, 47, 62), rgb(189, 199, 212));&quot;&gt;&amp;nbsp;Bookings, etc.)&lt;/span&gt;&lt;/div&gt;" style="sketch=0;points=[[0,0,0],[0.25,0,0],[0.5,0,0],[0.75,0,0],[1,0,0],[0,1,0],[0.25,1,0],[0.5,1,0],[0.75,1,0],[1,1,0],[0,0.25,0],[0,0.5,0],[0,0.75,0],[1,0.25,0],[1,0.5,0],[1,0.75,0]];outlineConnect=0;fontColor=#232F3E;fillColor=#C925D1;strokeColor=#ffffff;dashed=0;verticalLabelPosition=bottom;verticalAlign=top;align=center;html=1;fontSize=12;fontStyle=0;aspect=fixed;shape=mxgraph.aws4.resourceIcon;resIcon=mxgraph.aws4.database;" vertex="1" parent="1">
          <mxGeometry x="170" y="655.99" width="58" height="58" as="geometry" />
        </mxCell>
        <mxCell id="hE5iUYHQlxyRtZsjtgI_-24" value="" style="shape=image;verticalLabelPosition=bottom;verticalAlign=top;imageAspect=0;aspect=fixed;image=data:image/png,iVBORw0KGgoAAAANSUhEUgAAADsAAAA9CAYAAAATfBGuAAAAAXNSR0IArs4c6QAAAARnQU1BAACxjwv8YQUAAAAJcEhZcwAADsMAAA7DAcdvqGQAAA3USURBVGhD7ZtrdFRVloC/e1N5v0MI4ZXwkEASDIwRBWwlg9LQoCKwyLTaDTKtjGAL4shb2yVL17SgqA2IBBVUHqLgrBmg0WA7oCDQmpAQSCRAIOQBedYrqarU68yPW6mkbiUhlRDame6v1l6r6py9T91d9959zt73lCSEEPydIHXV2TJ9OTtO7wJgXvpc4sP7uPv25e/lgvYykiSxYOx8IgIjADDbzOw8vZtaUx2390lhWvI0t801QyXbc3cAEr8aNonR/Ue7+74qPszpyjwEgpUZy9ztPiO6yImyXMHvETyNOHL5mLvdKYR48vMFgn9DsApRaah09+nMOhG6aZzgccTzB1e524UQIr8yT7AIwW8Ru3L3uNudTqeYv3+F4HeI6D+O9rDxFVntvE+EAuHqRoEkgFjAH1BdN739gqDlIvAkBOiNl5EsSRAHQhLq4Xyie87+H+MfzvYkkrqhU3TNSk2nnBUIzDYzOrPOJVqsziZwAHaw2C3ozFp3f01TnXJ8DnBid7dbHU1cthlBAqO9oZWNFrPdDHbFL5uwuW0MTQaM9kaQQGfO9/genVlHg7VBfbjtcsOpp9JQweq/rCO7Kp9Ku7nlV248CbbByu8lX4KIsUq7JEH1CYKDR2JuMkJkEGiilT67HoxakCNAVENUckswajwJtiEgySBdbBkPAbpzaPwSsNv00CsRhNPdNywgnN8lTWbB2KeICIp0tbdNh85+V3qS+94Zp0RJv2iwaFs6ZSDA9d6mnEU3Aa2umaZWwVVyRWjZpW9rZdPReP6An+u9pVU7QHAU1Oi4485f8lXmTmJDY1UKLbTrrEDw0I7fcvDCTuXLo1KY3e8OtZpP2JyKd01OK4Gy4pm/7K/S8o3Pz+6AkETQlrJq8ku8NmWNWsVN+84KgfxmGtSd5V/HPsf7D6/vfpwQIEkSTY4mAv0CEUJ0e8wr9ZcZ8uEdYPCDsEAMi88THug1+UNHAep0ZS7UnAUbZI6YiiRJdOelt+jZeHwDqZsfIOit0Ty2ey6Hzh8C8NL15TU4ZghLk58Bez3or1Fvqle74qZdZx1O100jgyy1q9YpzlQWEJ11L4s+X0xh9U9gsbH73MdMe3ca03fOoaSuRG3iE5rm47vBVdI9LzqBzqJj1LtpoK2FQMBeAX6uOycS9v+4gzVHX8diV0eem48saO91c8j6YacSkbXXWTP1TUqWlGBfXkzRoiIYeBcEw0cnssi7VuC2Ea4A2dbrRsiyjBBqK8VSM2rzZMobatQ2aGvziIhJw1B3Rt3VaZzCyamKPJAgY+R0XsxYguS61kbEjeDs9G2MzEoFM+RX5DN24BgAVhx+la2n93ldlkKAdtlpz8ZWREeMImFdAoQNI9ovtKVDwIzb7kMuMOag1eehNdd5COGD1d/lM0IIirWXABgWO9jtaDO9gmMgfDgEQG5lvrtdQkJb1cYx3eDcSkgQNASsFk/bWuUHlxOi74A+YyF6gKcE1KG36tXj+YzVYQcB4QHe04GfLIMUBBLUNbZE0YjAcEhI9zqmhIi+HZ6AeqsBgnRedgwYQ6+QaDBZG0VbcvparmAZgqWI7PNfq9LgzmF32EXShnsFLyCeP/iSultUG6sEb48SLEfM+vgxd7vJavI6nmZpi5UHXxSsRLASUVJ/UTS2YWdz2IQc7B9CW2KztV7L3VqC/YO9jqdZOkQGGQ0hbdhpZE3PTz1d4cilo6w78qaHvHciS63mM3JxzQUKq4q8pKyxwnOh3k3swoHD6eBSXQmFVUVU6CsJ8g9SqwHwZcl3LPv4BZb92SX//QKb8vap1byxQJWp2suXwqoiynRlyMO3JZG6OYXULZ4ya/tM/HqnqofrMnbhwOKwkLF3HqlvpfDqt2sJ0LSdBAiAGFe244+yGJE6Ck0ueiVzd9ZdXr6kbkzh9e82IGMFaoF6ldggTG7Oq24GAn8/fxCysshAbncaWXz3PIpXFFO8xCX/Xsz+zM1qNS9i/AKhoQ1froHJ3oTmUGY2Zpv3Uq3BbmTOJ4/f1AWlhKQMJyvv26NfRH91U6eor8nj3V9nER8Sr+6iX0Qf5ClJk5iR+pCXjIi5rSVhvsWU6cr4sTzHS3LKc9SqngTC1Nt+6eXLjNSHuHvgXTfzvN08snJ2MuadOxmT5SkP71moVvWJn6WzNqcdagCTp5jsVrVqG7QXCUDzSc4nmKwmdTulxisttaJbzJQhv6D/k39SN4No/z4HJajuLviUKP9or4iQGJOI5unDb2GqbSOT8IfIqDT03ch6ukrG0Awyhmaom29ITK/RrDywEpqLj80YYN6vFiGbJDsE4y1OcLhLlrcWh9OBzWHzELvTrlbzwt58vGpfopVqhqbwiT3uql9rrhhKmL5lBmjUPT3P1h8/ZmfhfjSSMh0IBInh/fhoZhuXdisM1Wf49rlvidR4148jgiKQk/skk9Y3zUv6hvRTVi9/A67oKzn23X9yJH8vR/L3cvSHfeRWnVereRMMCWEJXr6k9U1jUPSgn2c0Hhjem5n3z2XWnS4ZP5dx8SlqNZ+RLXYLZpvZS+zC5n2j+4jZZqbYpsMrNLpQKphK7bjCUkujtRGAZ8bOZ99j29nbSrJmvKU290aAJCvPpdRidVjRzN63EK3F6LXQPq47B6G9weRdn+oM9aY6/mn3o1BTAHYwOaxK7dn1PbIk4+8XAMIBGjh5Lpu1R9fz4sQVyhq6K2gCmPj508QHKNsamrE5HTwy+BdoDpRsg+uu7KI1fhAZk4a+i87uyv+Cq7mHIQwYnMrGqWso11dQaioHDdRb9EhIHH1kExM2ZkD0ANZ88wdm3z6TkfFdy7ZiQlO4dPErLqkDdwOkRg5AmvPpfFFr1npdaVetVRRU5IK5gewnv2ZS0v0qjfYRCMZumcpfr3wJ/Ufh+H0Oh4v/wpQ9k5WMJyQFjIX0H5JB2VPfsOvMHn7z0aMQHMDkoVM5NO+LDhMFNav+/BL/cexVCEqAqFCmRYz06BcIxg9Mb38DyV+vnupyDerA2f2CZxE8j9j4w4eiydEkWItgNcqYf1A2l/AcIv2DiUIIIZK2ThK8HC5YhjhffV49ZIe4a1CrEVfqL6u73fRIND5XXQRBQBBkpkxj/7mDUK4s5+ZPXMG5Z35i3PBpEAo5Bd9wvPQY98QMApsRbHC5/op6SB9o/4roEWcrDdeUGCCBv58/By4dUpwPgQW3/5rkuCSeGzUXXM+2q03VvPLAKvdnY1Pnn6b7glxlvM71NkRn0Xa5BhUdEqkkEE7QNxl5/PZMJXMxw6a8jzhZeoJ/+Z+FEB4FdkgIG8j+ogNK/iwgJCBYPWTnsEGDzeDly3Xjdcw2ExJrEFjbOPsNENlHSQR8DVCnSk8ydsM4AN6evYVHUx+hz9aRyjNUy3Vl/g6OAp2OmeOfYF/mNtLfn0Ju+Umw6Lm87DKDYgaph22X5gAVHTUabV2eUrNqjQPmpT+LjJ/iGBaVdPHHBRiTcBcpgydAcBBvnPqAuLA4sh/cpTja5Eob63Q8mJ7J3swP2FGwl9wzX4Fdz7TkWSRGJ6qH7BQSrhtT7UutUrCT3jn5oTA0KSuX1lwylrL9+Btgx+czC/D28c0s+WwhhMKkEbPZ8vA6Bkb148uiw5QbrpHcexgThtzHkUvf8s/vTYCw/mCr4NyiQlLiktXDdYh76hGwaOIr9A6MUauQ0mtQz0w9QghhsBgE6+MES5XHEryMWJ29WtRbaoW2qV78VFsoxm+douxXXJMoeAKxOvsVYXfa1UPdEM+p54q6202PRGOA8MBw9AsvMCN9DtQBog+vff0aMWtiiX4lhhFrU/j+6jcQFQu6Uv74xHqW3rsYP1da1xP0mLMAEYERbH9kAxvnboKQKiXauqIyAMLKwD6DyVmSw/IJS4i8wT6m7tLubpkLtcUkrR8OVtgzZy+ZabPUKp1GCEFNYw2lulKKdeU4hWBASAx9I+JJjEok2L8b0RCY/elT7C18H4DqZVX0DotTq0BHzgohkNemQuNFiOtL/qz9xId7F587gyRJBPoHIkuysp3WNb5TCKXk4lCv3DvPsdKTzNo5HYIHMzAsnqtLvleruGnXWYClX77MGwfXQIRr91loP+VZ/88FSYayCuiVAGVX+XrFEe4fOkGt5aZDZxutDcz8bC7ZP30BRtUdrgGikpT3hmJoXdINAUKSlD2G9Rc9S7kRvSEgGkzFyv3bjAzEuMZrKPbcthcMhLr6aotb2oXroVcQrHvgHRaPX9BhLtyhs7iqDUU1F7lYX4LWrOxdFECJsYJ12S+CDAvvXU5a7AilT8D2gl2cuvo9NDXy6rQ3iQ1S5j2zw8KSIwvAAElD7mNJ2jx3zUBvbWD5fz0LAfDgqN/w4KCWef3dov2cufgFmGBz5jaPOkNyXDJxwVEMjxvutQj0wnMm6jwnynIFy5V52PM/Ak7x1GcLlHTuZUSlvuU/AlqTVgx6L0PwvPIfAae7x/UfgRVKWrgr91N3u8PpEE8fWCVYiYh6fZRwelj5Ro9OPWqUkkzL73/DM0Hz077WF19nrNrmljr7t+Yfzv5/pXvO1qJUJj3uQwkhCTC4loWqW+yKTQcN7TxYrAf0eBk5hVMZT/hShvPmhlNPexgsBgquK5srh8XeRlxYyz+TCq8XorVokZBIH5BOoEbJpu1OOwXXCjDZTMSF9WZYrGvuBIxNRs5cU54YDo0ZSnyEsloTCM5Xn6fOVAfAPYPucdv4yv8Ciql1wwzmnegAAAAASUVORK5CYII=" vertex="1" parent="1">
          <mxGeometry x="610" y="660" width="59" height="61" as="geometry" />
        </mxCell>
        <mxCell id="hE5iUYHQlxyRtZsjtgI_-27" value="" style="shape=image;verticalLabelPosition=bottom;verticalAlign=top;imageAspect=0;aspect=fixed;image=data:image/png,iVBORw0KGgoAAAANSUhEUgAAADwAAABACAYAAABGHBTIAAAAAXNSR0IArs4c6QAAAARnQU1BAACxjwv8YQUAAAAJcEhZcwAADsMAAA7DAcdvqGQAAA37SURBVGhD7Zt5cFRVusB/9/beSQfoBEIIS4AkYERRFNlRccBhXBiqxGUYi8V1xufCaBXIiAPPGX3i6KA1DOoooIw8BtAHiKhojQKCIMJDCISwJYgkgezpJZ1eznl/3E4vtzsL8uoReP6qTqXqft85fb97zvm+7yxRpJSS/0eo+geXOj8ZfKmj/Ng5LKRgXeEmDtWWIoGZgyaT7cwGwNXo4p19q6kLNNInNZN7h0yJ1Nt2bAdbyvYCMDRzADcPGB+RrS/cxIGaE0jgwSF3kZnaFYBKdyVv711NEEkns53pV03BYXVE6p0T8kcSDAXl1JUPSR5G8gDy2+O7I7Ky2jLJAiS/Qd66fKoUUkRkf/5skWQ6kvuQsz/6feS5lFI+vPp3WnuPIwsriiLPD5cXSR5D8gSS55Fl9afj6p0L5zWkDYoKGUAnvQQwm6ELKChxjyVAJtAt7jESqUkzAHtEM4odSM8BY/cE0blwXgZfjPxk8KVOuw2WSIQIRYqqKAREkOYpqihKRGZQDIAfgEbhRwiBECFCIoSQoUibARltTwhBoFkmwaAaCIXrKIoanrcKKAJFVbW2mosUkTbbos2wVN9Yz4rdK/n8+FbWl++LOhPhAf8PdEodTD0CKg5AxgBN5ikGe39STSm4vcfA3CvaYF0x9owrUVDw1H0HqeE6AI3FpDoG40ZA7QFwhGUNxeC8nC4YqfV7wHcM7GGZhNHOfkwaOIGpQ+4iq1NWtL0ktGpwtbuKG/9xBwcOb9E8sbEXyGCMhlH76gBKCOK+tCn8VwIxdRQDRIKDThbbHsEYT62EZc3EyFQVQi6oa4CcvpRP20H3zt1jdONp1eC1361jyluTIfsK7YtnZIAl67zCwv8qCuB3wZlScBZA5SGeGjeXF36xAKMa+4GitGrwbz+YzZK9CyEIL970ElOH3oPZaNarXVBCIsSm4o+5b+1MsMD1OXfw8a/fxWa26VU1dIlIBCGFnPnPxyXPIHm+QAZFUK/SYSg5WyKZj2Qe8rI3JkiXz6VXidC2l1a06aK236FfGFQACyEZDGdtyengVpwDYRvjE9lEVAB/oImmgC+u+P1NuIONev0Ojkq98KMqSoI9TQEfgaAfRUghb3hzEmcD9XFVpZQU12wD82UgFMTThShKW9/vwlBaWUrfJX3BMABEFSlpfeltshPrjkPAmLQCFCGEVF/MA/fx2Da0sWG/DAxGCIYuDoNNBdqgbSwEffIVhDHZE1FR4EpHL3Dmxpcu+eArgphUsMMjJQTKwZEGzrx4e7r1oX/nXlocdjU1JCQTEsm0NbNYd2wZWAoujh4OppKWdQWlMz7CiEGvhs1s15yWw5KGw5pYnJa0hA/RsQmQpdoxKsYEWxzWNIyq8RIKS2HaGoSKlFIu//odbfzHIIGZ37wMDT+AscfFMaRlLzCf4vXRr2MxWPRqdE3pqoUl58Ih1J3dlxi1HV3B2r1dXloi8fl9VHmrqPc2EBABUs0ppKek0yWlS8LelpCCWm8t1Z4a3H43UkpSzHacdied7Z0xG9qfs8d5aeGH+mOJUzEEY/tODIel/8gF9wmdBmDvDyZ7uww+VFHEg588w/bqneAp08KCCeh0DW8MeYj7R9yHqmgzyBfw8dr2Jcw+8B6490ATmr4ZcFzOvdnXs+T2haSYU/Q/k5Q4g6UEb1FSg8dkT9R6+IkNswmIQJxcURT+dng1BI2gpLRocEiE+OLYl4x/92faSytAc4Imw0a4Yffs3Vzb+1pqG2t5dOMc3vviTciwgTesHM7ZSc0ATxXOXoP5+u7V5HfLj/25pEQMVvqDoZ4ZA+/EqsaPEIHkyi4DtTkcCMUb28yM1Y/zXtESsLYclk7Xl9HzzWxoABQ72L28deM79Hb2obTmJM9/u5jSnd+w5Q9bGdVvJHM2P8efNy6A7vlw9gjzb3uBG3Kvx6CofHF8C8++Pxt6DoS6w0wb9m8snfwqqtq6b42GpRT6ZF/LwRkbMSeZwwZVbcfycB6SPxVIIaKb6VEdKf+y9a+SWUie6y+ZizxQtj9u473KUyWX7Vouz7rOyhpvjeSVgZL5WZLfIVftXSWDoeiyMxgKyI+LPtE23P+YL3kWebzyWETeEiVnS7SN/3kWOeD1cbLB16BXidDyp5MQaiPLcvtczNqxAJz9oeY4H9zzIZdnXRHnoNLt6Uy/bhpdU7tSWH4QTh8GUc7ogluYNGgSBjWaIBhUIxPyx3PrNVOh6Qh4YGfJzoi8PShhP9ESRolk1n89k+ChhRS8U7oZLNp5UTJKakrAVQmWNOgGQ3tepW8mjk8Pf67NaR/c0m88VpNVr4KqqlzdrYCNhYABShtOIZEJXj4pph4cPruLJzY8i8Nk10vp58jGKKXk1aJV4E3ipW19wOSEYPKe9vjc2n6ayQf2wViMifOmGYnkB9dpMABNkJmWqVeJYDGZtQ4wQK27VnNm7bAXow3IZul3i/QSzUv3mIhqUA04DWmaZ5W6EjiprxaHkCK8KpGgGNvshcYmX3TLIYkDjCOkNWtLMgpaJeCKbmrGFsButGg/32mNi6/u28GRWUcjpXjWUYZlTQTvAV2LUeyWFC3WGmzg2kNj0KdXicNhS9E+UHPPtYDX79NGQhDsVhuKotDob+Ro5THqG+ta3nj3VUAnB0VPFsXZcmTWUY48eZS1M1egCiE4vvsoowpGkJeRG1P6c3mX/MR1ZQzdHd21OamaoQYOVRzWq0RQUBjVezh4ASts+X4HQRG7J60hpGBP+X7tQwoY0Xsk6wo3Yn/JTv6/59F5YRcWbfubvpqG9DDAmk12WrbOFq2kWlJRFUVJGl/bQ2ZaJrfn3K1lNp378fM146loqIhsoslwVrXr5DfUeeu4aeBNkAJY8thwcAW7T+4mdpc4KIK8v/99Pt29Bkx9ISuXob2uwWlNY8udW/hu3j6ohI+KP4t5i3NDBah2V1PtroorNa5qqpvq9PpxqIrK7298MpxhGcEHWf+4lSXb/87Gwo28tfNtblv9AMP/NIy9p/aQYUtnRN/bwHsUrFmMXDGSl79azPbj29l6dCvzNr/AnUvvhOyBcKaEV66bhc1iZ0z/MYzNG0uj1wcK5Gb0179KGAvFgRoa/d4Ee6rd1dR767XUst+Lwyj17I6v2+wZUwdBULSYaflDfl768mWeWTUXmo91GsNOp1m9HrbO2cbo3FHsKt3FiMUjtJMToxaiIJxLm8KlFiZeN5mVU5bR2aadtjcFm3hkw5O8/elidjz9NSNyhocr6nLpQB34yuJPZtDav63nHahIKJW1YMsFW1602PMwpwxqMx6YDWaeHjebVb9dy8g+v9CcjRp+cQdcPXA8i2a8zlW9BqOgMDxnOHsf/2+mD30EuuRqemrYeDMM7jmOv/7qTdbcvSJirLvJzdzP5vP2isW8cf9Sruk1RP8aERyWDHDkx9tiywMz1AU8Wg/nvTqW43VfxddUwr2UUgBBWuzhWHwBH9Weas64zwCQ5ciik60TdnNiEhASIVw+FxWuctxNHhQF0lMy6JbaLUH/3W9XMu0PU5n54KM8NeZRTlZ/zw05oyKJS6SHjZdB0A3iVGI/CZjc+1fa4qGovEgn1RKFhzfNY9upD8Dc8uLh/4I3di1jdeH6iDNUpMKyya/RO703xBocyoAudvZP+RCj2nx6GaWzvfP5LR46CvGLh5t+5OLhEkWRUsp/Hf8ykn5FkczYPJ/vK7eC6cIO6baIDGmRCSln+OSXmzEpSYa0JU1zWj1fHkZZlS4sAdhMYB3QaljqCMSFJb8XGkuTOq3xOb/UwlKZvyYaF+NKTpthqcNhtmvprt4WFZqaD9Omv/cA/pB26yaCAqtKPtSWh9J6cfSwmgvUMSn7BmyG+BsAAsHQHldrczgYir1AoiHbuafVEUjc0/oIS5JtXlU1aLm00WDEaDDpijFppY5NECsGhBRJ7DGhKh3+HsM50M7B14bBija2Q6fwBjrubYC4nZc2LG/12tL8zQtZ8K/ZYIUh3cfz0KC7MBkS49uFREjBByc2s6noP8EAE3LvYf09S5NuENKWwdtPbGf0X0ZDZj4Ey8Hj0qt0DKzhRc6xQyy69zUeHftI5FhHT6sG+wI+/v71ch77+DfaaNGvMW15OE3a+U+N5yA0n2AoYE+9EquiUhNwg/tYtI7FjtOuHZ/U+OvBVxKVWfvhNKdpMve+6PaSCmmpgzGiUCuCSE9hfFAJAR549pbnmH3jLOytnEm1anAze7/fy7r966nwVyGkNk9CMsjyo2tBpIP/JIN7DmOo8wokUOmrZMOR8DaNwcNzVz8GEhRFsqrkcwrP7AZjJljg/n4TI/vOb534RDtY859gXP/b6ZvaE4BT3tNsProe7IOg6Qcm5d9Mhjldm7MSsuxduXnAeIblDGt7ysUtJVpBCJFQfr3yYe2m3lPIPSf2RJ5X1FVIXrBJ5iInLL07rs7Cza9IZiN5GvnUh3Miz0MiJO//52Nae3OQB88cjsiKzxRL5iB5LkeyMFtWNJQnvEt7ST7Qk9C82ddchBSoMYmIlCJOpo0zsKhGUGLrR3/SoBri2jQq4WMXJb49KWK3TrW71fr3aS/tNvhS4SeDOzZt+tc2OS+DAyIAAd2l9mbcfgg1v6JujoW0OoaY+aygaPdqAoCL8P9NxOAFvCehsSKhuXOhXWEpGRJJpbsaTzjl7JHaDYtJOz0MiiDlrjMEhcBqNJPliJ4U1nnrqG3SEphOlhScdmdEVumuwh1ur2da90iI8Yf8lDWc0VIB1UCWo1uLN97b4n8AdqOjdM28PckAAAAASUVORK5CYII=" vertex="1" parent="1">
          <mxGeometry x="610" y="730" width="60" height="64" as="geometry" />
        </mxCell>
        <mxCell id="hE5iUYHQlxyRtZsjtgI_-29" value="" style="shape=image;verticalLabelPosition=bottom;verticalAlign=top;imageAspect=0;aspect=fixed;image=data:image/png,iVBORw0KGgoAAAANSUhEUgAAADsAAAA7CAYAAADFJfKzAAAAAXNSR0IArs4c6QAAAARnQU1BAACxjwv8YQUAAAAJcEhZcwAADsMAAA7DAcdvqGQAAA3USURBVGhD7Zp5dFRF2oef7nT2pDtLJ2QjEMjGmggoQgAlwgCDIqMzOnAOCI4iyAQwoIIsgqODfjoikgE+RzaFQRSGgYhxACFAFAHZogGyQAiQPWRfujudrvnjQqf7dndIEHC+882TU+fk1PtW3f7durfqfasu4jY5evWU4FUELyPS8zPM9SZhEs9/PkOwEMHriKKaIrOtuqladF07XJCMSN7zmrleCCHOFp0RzEeQjPj7qc/M9SaTSUz/coFgAcLnnThhsmrVMZT8P+K/Yu8mChTyqnZg2UZY/N8xVPIKOS2mFqp1tVypvkJZfZm5/lL9NWiRfsexwpPoDI1m29+urgHnUKgr5FTpGVQlPwGgFwbyqw+AM5yo/Il/5ewzt7lQlQ1G6RddbrzaalPA4YqzoILq0rPszdlvbgOgcdPQMzAWL1cvlIq2x04hhHB4qyobK5metpgvclZDNdBsYVSAStsLAGNlliT8Jt6BqNwCMCKg7FzrwAjAJwSViy/GhixovT+gBJX/jf6qsiThN/EAlWcvqao8q7VeAK5AUA/WDZnP5H4TUSkdj1+bYhcdeJe3Pn8FAjxB1wCeP+spuvMogFrpZlAPh+ccYWjXIXIvMw7FCiGISkngYslRUEPakwcJcFPL3X5xMq6dZM5X08AIo6OfIG3KDrlLK/K16Ca1ulrBUmndW31s489a3+4meqNODFw/XrDEVTAfcbnystzFjMM3+kLZeemdUkGkT9htzaH3AhcnVxI79YZmPTjJrdY4FGvG7kP+f5Nbi73HfHspg2e3v8i2M9vkpnbieHQUabkHRWOzTl5Pfl0B876YDgrY+9x+RkY/Ine545wsOsOA/7lPWk4UcGjaYYZ1Gyp3s+G1rxazPONN0MO6Zz7Dx1kjdyHMOxAFf0JQZie8cAKNti811zPviViBYOymCaTlbQPXbqAv5/6wwRx7Ie2WUddNsX4+8VSWnrEd3HqYOmYWSkxI66ebrNxDdEYd0/75EmmZN4S668GlEycu/Yvfb3uOxmbL6MMxZo1yLRpQIFBkl2cLk52ltsHUyIB3+4Hy7j/GR/K/Y1hKAvhFQ2EOuW/kEPVGNARGQXEuu2buYVzPX8ubmbF8jDNmZ+DvrpW7oPXwRxmtjSY2IMammAzNt5zKLSmqLeJI/hH0Rtv3vy0EgiWHVoA70JRD1uvniNRGkfVaFuhzwRfmf/sX6g318qa2uEOYd5iNltiAGLSe2jszG5fVlxK6LJRh7wzj7cPvYxImuYtDtmduJ/2H7SDgmQeSiQmMBqBHUE/mP7QcjHD+xwOkfPtXedMOoxQ37q78r70U1RbT6ZNR4OWMU9deLN22kNTze+Rudmkw1PNUxioI8IdGeGnAZJwU0uOkAKb1e1pKMPyD+eB8Ko2GBnkXdpAradWj+uPO2VQ11shbsLV4E3h2gfoCucmKz378J5w7C9pOtFRnQUQvxqeMI3NxJn2C+8jdrSiqLYGaI9AEScOTiQuJs7JH+EWwIHEhyw+/RemVYk4XnSWh62ArHyuUMGP3bHxUvnIL/cPiUK3O/hAqABeZVeWDxlNDTRuvyunC08zd9SL4uYDGyMqRq5i9JQn8IOX4JtY+/l6bi0ZZY5WUOhpgVPSv5GYAno7/HcsPvwXNUKGrk5ut8POKJy17t7wa6sAtcRZK1P0hOBq0sRalB7hUU9Ps+LExiRY+OPo3cAauG9g9aj1Jg2fy+JBJYIKPLmzHYNTLm1lR0XhdypE9oLu2u9wMQJgmXAoyBJQ3XpebrahsbgAvpN9vqSe8Cz5u3qgqp+6zO6HkXc/lwZWDHAaUxbUlfHJ5B5hgSP/HGBUzGoVCwR/6TWDX6U+hooD3Dr3PwkcWyJuaidCEgjfQCF9kbmdx4ny5C6nnUqFOWi9j/CLkZmvqcjk3L4tAj05yCy5OLih93X3x9/C3KUqUbS495Y2VUFUGBpjS57e4OEnvwYNhA8AH8Azmy9x0q8musLaIVUfX8lX2XgwtBgK9A+DGyC05soCjBd+bb7xAkF2Ry9TNz4BfDKggTB1k7ssuKvBw8rTR4u/hj7ert6NxuzXOSpX0CJtA6+Vvrtcb9dKWiqkYf3cfc31JXQlhq0OZtXUGY/8yim9yDxDkFcTmh9+Gq0CLlsHrBzH7y1dZ891ant6eROy6aPDvCgXZbPzNVsJ9w8393Q6qkroSWkyWG0gSDcZ6MCAJsoOPm1raDjH5Mn7joxyd+T1hmlBWn9oo5cE6GNFtMAoUNLc0M+XL+VAFaDsDTvx6wxhOzjrFxH6/5+KUa7y+4xXwhZTv35Ou6wYog6DsMs+OTmLyfU/fMkamWfrdhTWFcgtuzm4oWDVQoC+xzvYUCmi8BERCbZ7dcLHF1MKf0t9h2daFEBoMFIMmCq7mSjN7aB/qpn2Hp6snK458yNx/zAEvFQREwdXzkhj/LpQ+dxwPZw+OF57mkdQ/QmWmedMAbW+2jFjC+B5j8XDxsLq+JeZw0aM7OF8EVTfrVK+ljHl956LU1DdDUQEU5beWwktQDxpnxxdwUjqRPHgmzz82G5qKpSXkaq5kDOnF3tEr8XL14sTVk8z9bA74R4LOyKkntzA5YYYkqLiA9Sc34+nqSWK3oTTNPEbFqxWkTz9IdnI2puRMJsb9rk2hlvi5eMN1oOiStZ6cBq43VaN4L32FqDfaZhX5tfls+uFjaG47EdAZdfxUep6c8lwuVl5iaMRQ+nbqgZ+HHyZhYvSnE9iX9zmUwtfz9jEyMpHSujJCPo6HmhYorCA1OZVHez4q77rdmEcWSEpIxt+tdQ65Saw2yvGG2/ErxwSvSAdXe7P3y83tYv3xjYIZCF5FzN6z0Mq2I3OnYAqCRYiEDY+JmqYaK3tHWLBnkWABgoW3ueH2cympK+HZXVMgNBqUMPOBKVb28b3HMX/CMmiCb0+mklFw1Mp+N7hrYv+RtQeagOs5/PXRNURpI63sSoWSiX2eAA3gA2P3zKRWZxujdxzHSYwys/gsP1w7YVPOlp2xPtLoAALB7pz94A6dOvfjhUHPy10AiAqIZFZcsnSdyxc5kJcud+kYTVBSX2yj5YdrJ8i7noeCpQga7IyxETQBt7cHlVOWTcyqWNDBkjHvsixxntzFTFZJFr3f7w0qSBryGivGvGFO89qLzR6UPDbQw9RhSShxunFgZZQVJdjbrmkP6ZcOSUuLEkZEDJSbregZ1JMRsU+AETKKzmIwGuQu7UYIIYW4ci06UKJEdXDCISnEk1GuL2HSpsltxseOuFCWIwUNAtSutz4fCvcJAaDcUGU3KWkvVWVn+WTyFgLdAuQmAr0CUD7cfRijYkbalBhfKfi+HfTGZvMxpdFkefZoHxcnFzCBSnkbd9YSdxgWnmCjZVTMSO4Ljbd5U+8Ij/cea46PL1dfk5ttOFeeCwoYqO2Lq8pVbr5jKI0mI/aKEKa2ZvE2iQ+JB7WUlKec3oyuuUnuAoBJmPjo2HoOZ6aCgG6+YW0eJt8SASiEjRajyYhJmFBM2jlbVOkbbPKJ1JpcKDwETW2Hi/YQwJJ9b/Lm14vBGf4w8EVeHz6fzj6dLXwEH5/YxLSNUyEgBBRFFL5USIhaen87gjlcVEHfbuPo4h5oZTcJwcjw+1GwHEG1nVTOyQuNe7fbWnoArlQV0CWlq/Q4twBa+CBhNV39umBoaWbnj7vYemQDBIZARRHfvHSQxO4Py7tpF1ZLT72d448amDp8FsremhH4+sXh421daGpjp60dhPt24UrSFQh/APRAFczZ/iLjPxrLU+vGs/XMBil6ci5izaSPGdo1Qd5FhxFImwlyLT6hcSDE3U0EhBCiXl8v3tj/ZxHxvyMF74YKFiFYhmBlXzFyy0RRXFssb9JhrBOBfIdfCdyV2dgSTxdPFiXO58zk7Vybdpzzs3LJm3mJ0mf3sfupdQR532JfqcM43s+462IBFAoFajc1oeoQYgMi6e4fQaBXIG6qe3tceE/E/qfgUGykNko6WVPBgYKMdp+R3mtK6kpYnr0D3ELBGQK9rJcdSxx/B4UgccOTpF/cCXoY1mMMPTX2d+1/SdaeSwERBLUlvJCQxNrffCh3MeNQLMA3eemM2DhcmtOdfcFYJXf55XGLhKo8+sT8ikOTtuFrsVctx+FjDPBI5MNcnpvP6NiJoKiSgvubpQl81XH4quOlwMHSpgA/dTwa775SinWz3gQ4h+CnjpcuYNlGD77qeMmml9mE1J+vOs7mOl08/Jn10BzOPP91m0LhFiNrSa2+lgZ9a6BxrvoiI1YOAwG7pqdxf1BfuLGwv5y2gL//9Am0QPa8C3irvAFoFs10+XQcFGQyOWEGbycuMvdXUl9MvxUDAEh5cg1P9BwHgFLpxLyD77D5+xWghMKXC1GYW0FwB8LLNkfWErWrmmB1iLl4Kr2kEFMFGhdvC1swnkpPSbULeKta22lcfYhw1kpHJi6+Vv05KVRSSmkCP9dWW6BnIF5KNxBSZBSsDrZq1xHaLfZO0ZFTfftYjmvHuOdif0n+K7bd6KSDZLvUyL48v0G1qVk6j7GHDunMSIYJoLLNLeF24bR06dKl8sr2YDDqUbp48GDUUAZ17k8nb+m0W4GCivoyIkJ6Mij8IUZEPmSOgU3ChIuugd5R/XkgLJ7eQdJn8gCGFgPC2Z0HewxlSPhAwnzCzLaqhnK6hkQTFxjJmOgR5vqO0u6lp6MIRBv5h33aatOWrb3cNbH/ifwbR1tKJP8ActkAAAAASUVORK5CYII=" vertex="1" parent="1">
          <mxGeometry x="611" y="800" width="59" height="59" as="geometry" />
        </mxCell>
        <mxCell id="hE5iUYHQlxyRtZsjtgI_-31" value="" style="shape=image;verticalLabelPosition=bottom;verticalAlign=top;imageAspect=0;aspect=fixed;image=data:image/png,iVBORw0KGgoAAAANSUhEUgAAAFsAAABLCAYAAAAf4PsCAAAAAXNSR0IArs4c6QAAAARnQU1BAACxjwv8YQUAAAAJcEhZcwAADsMAAA7DAcdvqGQAABdmSURBVHhe7V1rTFvn/X6O7/gGNvdLcAgXB0hwMIaQQBKISUI22jWKGk2d1k37Mq1Tp6rTJlXTtmhSv7RqsymdFk3TpKnTFClN1IUCuQAJDFNSwtUEaq4OV3MzNsY3fHn/H+pz/hwMaS6Qtkke6Xzwed9zjJ/znt/990IRQgjWgBCCYDCIxcVFtLa2or29Hb29vZibm4PdbofP58O6S547UBQFPp+PyMhIxMXFQaPRQKfT4eDBg4iOjgaHwwFFUesvA7WWbJ/PB7vdju7ubrS3t6Ovrw9jY2OYmpqC3W6Hy+WCz+dj3+E5BZ/PR0REBKKiopCcnIxdu3Zhz549KCwshEajQWRkJPh8PvsiEkIwGCRWq5V0dXWRN954g6SmphKRSEQAvDge4hCJRESlUpFf/vKXpKuri1itVhIMBml6CSGEcEKEIxAIwGg04sKFC2htbYXVan2xih8BPp8PVqsVBoMBFy5cgNFoRCAQYIlcDgCsrq5iZmYGXV1dMBgMGBkZwcrKCgKBwNr7vcADEAgE4HA4MDo6CoPBgK6uLlgsFqyurjJzKEIIWVhYQEtLCz799FNUV1fDbreziF4r8DcS/M8j6BVLGxQ0uFwuIiMj8fLLL+OVV15BSUkJYmJiAJpss9mMf/3rX7hx4wa6u7vhcrm+GqQoyOVyJCQkYO/evVCpVBCJROByuczNn0cEAgF4PB6YzWYYjUbGUqMfgFgsRn5+Po4fP46f/OQnUKlUAE32wMAA3n33XTQ3N8NisbBktVqtRmFhIU6dOoXi4mKIxeIXZAcCcDqdaGtrw+XLl9HZ2QmTycSM8/l8JCUl4fDhw3jnnXeQnZ391QAhhPT09JDKykoil8sJh8NhNCyHwyFVVVWkrq6OmM1m4vV6wzTs84hgMEi8Xi8ZGxsjtbW1pKqqisUbl8slkZGR5MSJE6S7u5u5jgMAfr8fTqcTLpcrzGGJi4uDTqdDQkICBALBC5kdEq8CgQCJiYnQ6XSIi4tjjQeDQbhcLrhcLrbuQ0jI+/1++P3+MLIFAgEkEgkEAgHr/At8xY1UKg3jhhACn88XxidD9nqSaVAUtan7+byD5obD4awfAjbgdeNZzwgIIfB4PLDZbJidncXExATGxsYwOjqKsbExjI+Pw2KxwGazwePxbLrgtgrPLNm0V3z//n1cu3YNH330EX7/+9/j7bffxptvvom33noLf/jDH3D+/HnU1tZidHQUfr+fZTNvNZ5JsmmPuLm5GTU1NaitrUV9fT0aGhpw8+ZNNDY2or6+Hjdv3sTNmzdRU1ODzz77DE1NTZiensbq6uq2rPJnjmxCCNxuNwYHB/Hhhx/iL3/5C65cuYKOjg7MzMzA5XLB4/HA7XZjdnYW3d3duHz5Mv7617/ivffeQ19fH1wu17as8GeK7GAwCK/Xixs3buDjjz+GyWSC1WplQsNrA0O0mPH5fPB6vVhcXMTw8DAuXryImpoa2Gy2LSf8mSLb4/HAarWisbER169fx/j4OFZWVh5KJDidTkxOTqK+vh6NjY2YnZ3dcqX5TJE9NTWFhoYGDA0NwWq1wu/3r5/yQPj9flitVgwPD6OlpQUTExNburqfKbJnZmZgMBgwNTUFt9vNEMXj8aBUKpGTk4OTJ0/i9OnTqKqqwp49e5g0FtbI+5mZGXR2dmJqampLw8zPFNlzc3Po7OyE1WplnRcIBNi5cyf0ej1+/etf449//CPeeecd6PV6pKWlhXmAS0tLGBgYwOTk5IuVvRkcDgcmJibgdDpZ5yUSCYqLi/HSSy9hz5492LVrF9RqNaqqqlBaWgqRSMSa73K5MD09DYfD8UJmbwaPxwO73c7KjgCASCRCTk4O9u3bB4VCAbFYDLlcDo1Ggz179oQlZldXV+F0Ol8oyK/DZuTQcYy1n+ljI2x2nyfBM0W2UCjcsITA6/VicHAQRqMRNpsNbrcby8vL6O/vx8DAQJjVQkc6hULhpg/jcfBMkS2TyZCcnAyJRMI6v7KyAoPBgE8//RRDQ0OYmprC6Ogoqqur0dzcDLfbzZofERGBhIQEyGSyF2Rvhri4OGi1WiiVStb51dVVmM1m3L59Gx9++CH+9Kc/4b333kNDQwPGxsbCSjYUCgWys7ORlJS0afj0cbB1d/oWIDExEQcPHkRiYiJLBPj9fiwsLKCnpwdXrlzBv//9b1y6dAldXV2Yn59nbGmKoiAUChEfHw+tVouUlJQXZG+GpKQk6PV6ZGVlISYmJkx2fx1o5ycrKwulpaXYsWPHlia3v3Vk0wGix7EGxGIxYmNjcfjwYZSXlyMlJQUSieSh5K5YLEZiYiLKyspQUlKChISEh772YfGNk01C+c/V1VW43W64XC6srKwwCWi32w2v1/tQgX0OhwORSITKykq8/vrryMjIgFKphFAoBI/HY9J79MHhcMDj8cDn86FUKpGRkYEf/vCHOHXqFBQKxZYSDbpu5O7du3jzzTfR1tbGGuRwOPj5z3+Oc+fOQSgUssa2Aj6fD8vLyxgeHsa9e/dgNpthtVrhdDrB4XAgFAqhUCigUqmQnZ2NzMxMxMXFPVCOEkKwurqKubk53Lt3D52dnTAajRgZGWGqcf1+P7hcLqKiopCYmIi0tDTk5eWhoKAAubm5j1RJ4PV68fbbb+PChQthi6G4uBjnz5+HTqcDAHDPnj17dnp6GnV1dZicnGRNpigKOp0OlZWV4PF4rLEnQTAYZIL3RqMRTU1NaGhoQHNzM1pbW3Hnzh309vaiv78fY2NjmJ+fZ1xwgUAAoVAIPp+/IRkURYHH40EulyMtLQ3x8fGQSqWQSCSIjIxETEwMkpOToVKpoFarsW/fPpSWlkKv16OoqAgKhQI8Hm/De2+EQCCA69ev4+7du2GiLyUlBd/73veQlJT01QlCCGlvbyfFxcUE68pgORwO+cUvfkE8Hs+aEpUnh8vlIsPDw+Rvf/sbqaioIBkZGUSpVJKIiAjC4/EIAEJRFOFyuUQkEhGFQkF27txJKioqyO9+9ztiMpmIz+f72oKhYDBIXC4XmZ+fJ/fv3ycmk4ncu3eP9PX1kb6+PmIymYjZbCZzc3PE6XR+7f02gsfjIW+88QarSIc+iouLSXt7OzN38/dxm+DxeGCxWFBbW4u6ujoYjUbcv38fVqsVbreb8eZoRenxeLC0tISJiQkYjUa0trbi2rVrGBgYCLOP14OiKERERCAmJgapqanIyspCTk4OcnNzkZubi6ysLKhUKsTGxkIsFj/0an5cPFWyCSGwWq3o7+9HXV0dWlpasLi4GOYub/Sjg8EgFhYW0N/fj+rqajQ1NcHhcIRd+23GUyWbLri/evUqhoeHsby8vKGZt/4zfS4QCMBms2FgYIDp9VlcXFw/9VuLp0a2x+PB/Pw82tvbYTAYMDs7yyrP4vP5iI+PR25uLg4fPoySkhJoNBrExsayvEGv14uZmRn09fWhoaEB9+/f/840VT0VsgkhWFhYQGtrK3p7e8MC/BRFQSaTYf/+/fjpT3+KDz74AO+++y5+9atfIS8vDwqFguXJEUIwNjaGuro69Pb2fmfEybaTTdu94+PjqKurQ39/P6u6k8PhQKlUIj09HXq9HhUVFcjNzYVWq0VpaSmqqqqg1WohFotZuUKHw4Hx8XG0tbWhpaUFKysr677524dtJzsYDMJqtWJgYABNTU0YGRlhJVHpwnGtVgu9Xo+9e/ciIiICUqkUKpUKr776KsrLyxEdHc2yrf1+PxwOB9ra2lBXV4fFxUXGOgkEAvB6vVhZWYHdbsfS0hKWlpZgs9mwvLwMt9sNn88X5oRsN7adbJfLhfr6etTX1zMdaLR85XK5kEgk0Ol0ePXVVxEfH8+ICyrU2KlQKKDRaFBWVgaVSsXyHn0+HyYnJ9Hb24s7d+5gfHwcwWAQ8/PzMBqN+OSTT/D3v/8d586dwwcffIDz58/j448/RnNzMyYnJ5l2lqeFbSV7ZWUFFosFra2t6OzsDOtAk8vlSE9PR0FBAbRaLeRyOet6DocDsViMzMxM6PV6qNVqSKVSxpsNBoOw2+24f/8+bt26hebmZvT29qKxsRHV1dWora1FdXU1rl69iqtXr6K6uho1NTWoqalBXV0dOjo6YDab4fV6n4qC3TayCSGYnp7G559/jt7eXsZqWIuUlBQcO3YMWq0WMpls05BoUlISjh49Co1Gg5SUlLBs+OLiImpra/GPf/wDH330Ed5//31cuHABN27cQGdnJwYHBzE0NIS+vj60tLTgP//5D95//338+c9/Rk1NTViHwHZhW8gOBoPweDzo7e1FdXU1JiYmWKuHz+cjLi4OarUahw4dws6dOx8YjxAIBIiMjERpaSnKysoQGxvLsk5WV1exuLiIkZERtLa2wmw2Mx1cTqcTbrebKaZ0OBxYXFzE1NQUenp6UF9fj0uXLsFkMm27DN8Wsj0eDxYWFtDV1YX6+nrMzc2xxkUiEVQqFfLy8qDRaBAfH88a3whCoRBarRbHjh3Djh07WNZJMBhkIn0mkwl2u3395WHw+Xwwm824c+cOLl68iPb2drhcrm01IbeFbIvFgitXrqCzs5PR/DS4XC4UCgUqKiqg1+shk8keGDKlweFwIJfLkZWVhcOHD2PPnj1hlUwk1AD6sPKXEIKlpSX09/ejra0N7e3tWFpaWj9ty/D1v/IREAgEYLfbMTIygsbGRphMJni9Xub1pCgKsbGxUKvV2L9/P3bv3h0mfzcDtSY/WFZWBp1OxyQGNgKHw0FERAR27NiBffv2oaCgAGq1GgqFgvWQPB4PU6d9/fp1TE1NbZvC3FKyvV4vxsfH0dHRgd7eXkxPTzNjFEWBy+Vi9+7dKCsrg1qthlwuf+Qcn1wuR0FBAYqKipCZmYmoqKj1U4CQXpDL5dDpdPjxj3+Mn/3sZ6iqqkJaWtqGb5PJZMKNGzcwMDCA5eXlbREnW0Z2IBDAysoKmpqa8L///Q+Li4vwer3MuFAohFKpRF5eHsrLyxEfH/9ApbgZeDwepFIp8vLycOLECezcuXP9FCBEtkKhQE5ODk6cOIGjR4+iqqoKZ86cQX5+Pvh8Potwh8OBqakp3L59G21tbdtig28J2YQQppj8zp076OjoYBW+UKEe+KysLOTn5yM3NzfMpn4UcLlcqFQqVFVVQa1WIyoqKuwNoUKNoTKZDNHR0UhPT0dhYSHOnDmD0tJSJCQkICIigpkfCASwvLwMg8GAW7duYX5+/ttZ6+f3+zE4OIiamhp8+eWXsNlsYXZrSkoKTp8+jX379rEsiccBRVGQSCSIj49nHCKZTMaa4/F4MDExgYGBAfT19cFmsyEiIgKxsbHQ6XSoqKhAQkIC6xqfz8ckKT7//HNMT09vqTn4+L84BF9oq6Oenh7GDV6rYHg8HlJSUpCbm8u43Fwu95HFx3rQecbCwkKUlZUhKSmJVXbm8/mwtLSEe/fuMaHYQCAAsViMnJwcVFRUID09HVFRUcyDp1f36OgoGhsbce/evS11eJ6YbKfTifHxcfT09KCnpwcLCwvMGEVREIlEyM/Px8GDB5Gamgq5XP7ERNMQCoXQaDSorKxETk5O2EqlKAqDg4O4ceMG+vr6mGRFcnIyDh06BI1GA5VKFea5Tk9Po7GxEe3t7Zibm2PpnifBY5NN27Szs7Oorq5Gd3d3WFyZfm0PHjyIkpISSCSSMNn6JKAoCmKxGCkpKXjppZeg1WohEAhYoVin04np6Wm0tLQwqTTaIz169ChKS0shlUrDPFKr1YqOjg5cu3YtzCl7XDw22cFgEA6HA0NDQ7h9+zb6+/vDitBjYmKQnp6OAwcOIDs7O8wJ2SoolUqcPHkShYWFUCqVLNudtv1bW1tx69YtLCwswOv1QiwWY//+/Thy5AiSkpJYMp8ONxiNRjQ0NGB8fHxLeiMfm2yPx4OOjg7cunUL4+PjYS0RFEVBo9Hg9ddfR2pq6pbI6c1A29T79u1DVVUVduzYwRpfXV3F5OQkjEYj2traMDExAYqiIJVKoVar8corr/z/BiwhBAIBLCwswGQyoaWlBSaTKWwxPSoei2y6SbO1tRVtbW1YWFhgtSBLJBLs2rULeXl5zB5J20U0Qt6iUChEZmYmTp48iczMTKbYBms2yzKbzWhsbITRaITb7QaXy0VSUhKOHz/OxGhoj5SEOscsFgsMBgNaWlpgs9nCIpePgscie3l5GRMTE+jo6EB3d3dYSio6Oho6nQ4FBQVITU0NK07fLqSkpKCiogJ5eXlITk4OE1sWiwX19fX44osvmN4bpVIJnU4HrVaLtLS0MPuftr0NBgMsFktYc9Sj4JHJDgaD+PLLL3Hp0iUMDQ2xYh90PCI1NRUnT55Ebm7uY3mJjwsej4eIiAgcPXoUx44dg1KpZJXN+Xw+2Gw2dHZ24vLly5iamgInVIyp0+lw+vRp7Nixg1XnFwjtBzU4OIhPPvkEg4ODa77x0fBIZNNauru7G42NjZiammIpDT6fj8TERGRnZ+PQoUNITU1lXf80wOPxoNFoUF5ejp07d0ImkzGWBq34TCYTrl+/jtHRUaysrCAYDCIzMxOVlZXYvXs3YmJimIdEQvUqExMTqK+vR3d392OLk0ci22azoaWlBXfv3mXKEdYqRalUitLSUhw/fhxKpTLsNX4aoCgKkZGRyMrKgl6vR25uLsuODgaDmJubQ19fH+7cuYOhoSH4/X6mj+bIkSMoKipiiT5CCBPN7OzsRFdXF5aXl5nxhwUHayJyG7nQdO20w+HAzMwM6uvr0dvbC6fTyTxdiqIQFRUFlUqFoqIiFBQUPLFL/iSgM0F6vR4ajQYxMTGMOUgrPrqOpbm5GTabDYQQyGQyHDhwAMXFxUhOToZUKmXEiS9U3tzd3Y26ujpYLBasrKxgdXV1wwghJ7Sd0VoRyqEHBAJBWCSMEAKXy4X5+XnMzMxgYGAABoOBWQ00aJecVjTJyclhXtnThkwmQ35+PgoLC5GVlYWoqCjWD3e73Whvb0dTUxMmJyexvLwMgUCAjIwM7N+/H3v37kVCQgLL2fH5fOjv70dDQwOMRiOmp6eZcub1Zi9d2ryWT+7Zs2fP0mbc7OxsWLBfKpXC5/Ohp6cHHR0d6OrqYu3OSJcjHDhwAGfOnGEC9E9LKW4GTqirgMvlQigUYnJyEhaLBQgtIoTI43K5CAaDUCqVjAVDhaKUs7OzGB8fR2BNPWIgEEAgEABFUZicnER/fz+++OILVm07j8dDVFQUsrKyUFFRwWxFRxFCyNDQEM6dO4fbt29jdHSUiQVQFIWEhASoVCr4/X7Y7XZMTEzA4/GwbiyXy1FVVYUf/ehHiIqKYlkA3zQ8Hg9GRkbwz3/+EwaDAYFAgKXUo6OjkZaWhlOnTqGyshIIic75+XlcvHgRn332GRwOBysYJRKJkJycjKioKAgEApjNZlgsFuaBCIVCpKeno6ysDG+99RYyMzMBmuzp6Wn897//RU1NDZqbm+FwOJgbCwQCREREgIR6XzweD+uPpUKV/rGxsYiLiwsTRd80AoEAXC4Xs8sZWbf9G5/Ph0QiQUxMDKKjo4F1CeSFhQVWAShCb41IJGLMWrfbzfIuZTIZjhw5gu9///t4+eWX2Z0HdrudtLW1kd/85jdEpVK92KT8CQ560/Lf/va3pK2tjSwvL7M7D6RSKTQaDbRaLRMG/Tatzu8KOKEKgNTUVOTn50Oj0bBMSMYa4fP5yM/Px2uvvYaioiLExsZ+I3bydxUCgQCxsbEoKirCa6+9tmGek3v27NmzCBEukUiQlJTE7LVB24q0jH7SEOOzBh6PxySyk5OTkZ2djfLycvzgBz9AUlJS2GJl/TcPWjEsLi4y28nTCdylpaWwgNPzDqlUCqVSyZRWlJSUYNeuXYiOjmYlMWiwyKYRXJMYMJlMGB4ehsPh2LL00LMCoVAImUyGjIwMqNVqZGZmbliTQmNDshEi3B/a5tkfamXeZOpzC2pNSzZ9bEY0HkT2C2w9/g+8/ZAbP1tY3gAAAABJRU5ErkJggg==" vertex="1" parent="1">
          <mxGeometry x="696" y="770" width="75" height="61.81" as="geometry" />
        </mxCell>
        <mxCell id="hE5iUYHQlxyRtZsjtgI_-32" value="API Gateway&amp;nbsp;&lt;div&gt;(Routing/Logic)&lt;/div&gt;" style="sketch=0;html=1;verticalAlign=top;labelPosition=center;verticalLabelPosition=bottom;align=center;spacingTop=-6;fontSize=11;fontStyle=1;fontColor=#999999;shape=image;aspect=fixed;imageAspect=0;image=data:image/svg+xml,PHN2ZyB4bWxucz0iaHR0cDovL3d3dy53My5vcmcvMjAwMC9zdmciIGhlaWdodD0iMzY3LjgxODMyODg1NzQyMTkiIHZpZXdCb3g9IjcuMTA1NDI3MzU3NjAxMDAyZS0xNSAwIDM2Ni40MTAxODY3Njc1NzgxIDM2Ny44MTgzMjg4NTc0MjE5IiBwcmVzZXJ2ZUFzcGVjdFJhdGlvPSJ4TWlkWU1pZCBtZWV0IiB3aWR0aD0iMzY2LjQxMDE5Njc2NzU3OTEiIHZlcnNpb249IjEuMSIgaWQ9InN2Zzk4NyIgem9vbUFuZFBhbj0ibWFnbmlmeSI+JiN4YTsgIDxwYXRoIGQ9Im0gNDguMjUxOTYsMTExLjUzOTA2IGMgLTcuNjE4NjQsMmUtNCAtMTMuNzk0NzIsNi4xNzYyOCAtMTMuNzk0OTMsMTMuNzk0OTIgMi4xZS00LDcuNjE4NjQgNi4xNzYyOSwxMy43OTQ3MiAxMy43OTQ5MywxMy43OTQ5MiBoIDE0NS4xNDY5MiB2IC0yNy41ODk4NCB6IG0gMjM4LjYwODU5LDU3LjQ1MTE3IGggNjUuNzU0NjkgYyA3LjYxODY0LC0yLjFlLTQgMTMuNzk0NzEsLTYuMTc2MjggMTMuNzk0OTIsLTEzLjc5NDkyIC0yLjFlLTQsLTcuNjE4NjQgLTYuMTc2MjgsLTEzLjc5NDcxIC0xMy43OTQ5MiwtMTMuNzk0OTIgSCAyODQuODUwNiBaIE0gMTMuNzk0OTIsMTcwLjk3NDYxIEMgNi4xNzYyODAxLDE3MC45NzQ4MiAyLjEwMDkxOWUtNCwxNzcuMTUwODkgOS4xODk5MjFlLTgsMTg0Ljc2OTUzIC04LjY5OTA4MWUtNCwxOTIuMzg4OTMgNi4xNzU1MjAxLDE5OC41NjYxOSAxMy43OTQ5MiwxOTguNTY2NCBIIDE5My4zOTg4OCBWIDE3MC45NzQ2MSBaIE0gMjg0LjMwNzgsMjI3LjU2NjQgaCA2OC4zMDc0NCBjIDcuNjE4NjQsLTIuMWUtNCAxMy43OTQ3MSwtNi4xNzYyOCAxMy43OTQ5MiwtMTMuNzk0OTIgLTIuMWUtNCwtNy42MTg2NCAtNi4xNzYyOCwtMTMuNzk0NzEgLTEzLjc5NDkyLC0xMy43OTQ5MiBoIC02NS45MjE3OCB6IG0gLTIzNi4wNTU4NCwxLjY5NzI3IGMgLTcuNjE4NjQsMmUtNCAtMTMuNzk0NzIsNi4xNzYyOCAtMTMuNzk0OTMsMTMuNzk0OTIgMi4xZS00LDcuNjE4NjQgNi4xNzYyOSwxMy43OTQ3MiAxMy43OTQ5MywxMy43OTQ5MiBIIDE5My4zOTg4OCBWIDIyOS4yNjM2NyBaIE0gMTg5LjUyMTQ5LDAgYyAtMjQuNTc0MTEsMCAtNDkuMTY3MzcsMjAuMDU1MDcgLTU5LjQzNzUsNzUuMzczMDQgaCAzMC41ODAwNyBjIDQuNjE2MzMsLTI0LjE2MjA2IDE1LjM0ODk2LC00Ny41MjE0OCAyNy44NTM1MiwtNDcuNTIxNDggMTIuMTU4OCwwIDM5LjQ1ODk4LDU3LjQ1MDQ0IDM5LjQ1ODk4LDE2MC40MTQwNiAwLDY5LjkxNTEzIC0xOS41NzgwOSwxNTIuMTE1MjQgLTQxLjE3MTg3LDE1Mi4xMTUyMyAtMTUuMjY4ODEsMmUtNSAtMjEuMjE2NjgsLTI4LjMzMzU2IC0yNS40NDMzNiwtNDYuNzE4NzQgbCAtMzAuNDE0MDYsLTAuMDY4NCBjIDQuMjIwNzQsMjAuNTQwODcgMTYuOTA3NjgsNzQuMjI0NiA1Ny43MTI4OSw3NC4yMjQ2IDUzLjQzNjcyLDAgNjguOTEyMTEsLTExMS45OTMwNSA2OC45MTIxMSwtMTgwLjQ2Mjg5IEMgMjU3LjU3MjI3LDkzLjgwMDc2IDIzNi41ODM0LDAgMTg5LjUyMTQ5LDAgWiIgc3R5bGU9ImNvbG9yOiMwMDAwMDA7b3BhY2l0eToxO2ZpbGw6IzQyODVmNDtmaWxsLW9wYWNpdHk6MTtzdHJva2UtbGluZWNhcDpyb3VuZDstaW5rc2NhcGUtc3Ryb2tlOm5vbmUiLz4mI3hhOzwvc3ZnPg==;" vertex="1" parent="1">
          <mxGeometry x="159" y="270" width="42" height="42" as="geometry" />
        </mxCell>
        <mxCell id="hE5iUYHQlxyRtZsjtgI_-34" value="Digital Image&amp;nbsp;&lt;div&gt;Frame Integration&lt;/div&gt;" style="shape=image;html=1;verticalAlign=top;verticalLabelPosition=bottom;labelBackgroundColor=#ffffff;imageAspect=0;aspect=fixed;image=https://cdn0.iconfinder.com/data/icons/apple-apps/100/Apple_Camera-128.png" vertex="1" parent="1">
          <mxGeometry x="146" y="480" width="68" height="68" as="geometry" />
        </mxCell>
        <mxCell id="hE5iUYHQlxyRtZsjtgI_-36" value="Messages&amp;nbsp;&lt;div&gt;(Chat, Bias-Logic)&lt;/div&gt;" style="html=1;verticalLabelPosition=bottom;align=center;labelBackgroundColor=#ffffff;verticalAlign=top;strokeWidth=2;strokeColor=#0080F0;shadow=0;dashed=0;shape=mxgraph.ios7.icons.messages;" vertex="1" parent="1">
          <mxGeometry x="300" y="382.5" width="40" height="32" as="geometry" />
        </mxCell>
        <mxCell id="hE5iUYHQlxyRtZsjtgI_-37" value="Workspace Module&amp;nbsp;&lt;div&gt;(Config, Data)&lt;/div&gt;" style="outlineConnect=0;dashed=0;verticalLabelPosition=bottom;verticalAlign=top;align=center;html=1;shape=mxgraph.aws3.workspaces;fillColor=#D16A28;gradientColor=#F58435;gradientDirection=north;" vertex="1" parent="1">
          <mxGeometry x="430" y="270" width="55.44" height="53.25" as="geometry" />
        </mxCell>
        <mxCell id="hE5iUYHQlxyRtZsjtgI_-38" value="Booking &amp;amp;&amp;nbsp;&lt;div&gt;Accessories&lt;/div&gt;" style="shape=image;html=1;verticalAlign=top;verticalLabelPosition=bottom;labelBackgroundColor=#ffffff;imageAspect=0;aspect=fixed;image=https://cdn2.iconfinder.com/data/icons/essential-web-4/50/calendar-month-day-booking-date-128.png" vertex="1" parent="1">
          <mxGeometry x="151.5" y="370" width="57" height="57" as="geometry" />
        </mxCell>
        <mxCell id="hE5iUYHQlxyRtZsjtgI_-39" value="IoT Device" style="shape=image;verticalLabelPosition=bottom;verticalAlign=top;imageAspect=0;aspect=fixed;image=data:image/png,iVBORw0KGgoAAAANSUhEUgAAAE0AAABwCAYAAABb7f3DAAAAAXNSR0IArs4c6QAAAARnQU1BAACxjwv8YQUAAAAJcEhZcwAADsMAAA7DAcdvqGQAABqeSURBVHhe7Z15VFNn/v/fNxvJTQgQFiHsijAgioqiRW0RR8StqGMrtjNUT5k6dSueqtXajnO06pnpjNpqF6du4FLB1tHjCI4eO61WXJgiKHVFZBUIYUkCZM/z+2OS+yU3iIAEnf58nfP8wb2f+9ybd57l8zyfzw0UIYTgOT2Cwz7wnMfzXLRe8Fy0XvBctF7wXLRe8Fy0XkA9Ky4HIQS1tbVoa2uDVquFXq8HAIhEIojFYgiFQri7u0MkErEv7Xeeqmi2W2dlZeHEiRN4+PAh9Ho9tFotDAYDLBYLRCIRaJqGQCCASCTCrFmzMHv2bAQEBICiKHaV/cJTEa2trQ1FRUX4+uuvce7cObS1tcHV1RUURYHD4YDD4YCiKFAUBYvFwhRCCNra2lBRUYHf//73SEhIwKRJkzBgwAD2LZxKv4t2584drFu3DpcvXwZN04xYNggh0Ov1TCvkcDjgcrng8Xh2Nq2trVCr1QgODsamTZswadIk5ryz6TfRtFotDh8+jPT0dERERICmaXA4/52HCCFQq9VobW2FXq9HeHg4pFIpaJpGdXU1WltboVQqIZPJIBQKIRAI7OqtrKzE8uXLsWjRIgQFBXW4q3PoF9E0Gg3mzJmDmzdvwtvbm2k1Wq0WGo0GVVVVWLduHaZPn46hQ4fadVGz2QxCCB48eIDdu3fj3LlzaG5uhlQqhUgkAkVRIISgpaUFKpUK+fn5CA8PZz9Cn+J00ZqamvDuu+/izJkz8PX1ZT5kbW0thg0bhvnz52PatGnw8vJ67MBua5EXLlxAVlYWzp8/Dx8fH6blaTQaeHt74+9//zuioqLYl/cZThdtyZIlOHLkCEJDQwEARqMR169fx9atW5GRkfFYoR4FIQT79+/H5s2bwePxIBaLAQDNzc0Qi8W4cuWK09wTpzq3tq4lk8lACIFGo0FDQwOOHj2Kd95555GC2cap8vJytLW1sU8DACiKwsKFC3H48GHw+XxoNBoQQkDTNAghaGhoYF/SdxAnk52dTQCQgIAAEhUVRRQKBduEmEwm0tzcTLZt20aSk5OJRCIhXl5exMvLiwiFQjJv3jzy9ddfk+bmZmI0GtmXE7PZTObMmUPkcjmRy+Vk6dKlbJM+xendEwAuXbqE+vp6jBo1CgEBAXbnKioqsHfvXmRlZcFiscDV1RUuLi52NjqdDiqVCjKZDJMnT8bKlSvh5+dnZ1NfX4/CwkKIRCIMGzYMMpnM7nxf0i+iPYq8vDxMmzYNAwcOhKurq50v1hkGgwFarRalpaXIzc1FcnLyI7u4M3lqoh04cADvv/8+ZDIZ+Hw+YJ0kjEYjWltbYTabweVyAQASiQR8Ph88Hg8URcFgMKCtrQ07d+7E1KlTWTU7n6ci2s8//4z4+HgEBQUxXbGlpQU0TSMkJASpqanw9/eHWq1GS0sLjh49ivv378NoNDIrCIPBgBs3bqC+vh4+Pj7sWzgX1hjXLxQUFBB/f38ybNgwMnz4cELTNFm8eDG5e/cu0el0bHPS2tpKiouLyapVqwiPxyMxMTFkxIgRxNXVlVy9epVt7nSeimgtLS1kwYIFxNvbm8hkMvK3v/2NWCwWtpkDFouFbN26lfj7+xMvLy+Snp7erev6mqfSPWHtjvfv34dYLMbAgQPt1pNdYTAYUFFRgaamJkRFRcHV1ZVt4nSemmj/yzh1RfBLhbJ20/87wPJ7nrQhsuvDE9bZ1/X1BmrVqlXEbDYzByQSCVJTUxlX4NNPP2X8pd7A5XLxq1/9CgkJCQCAyspKnDhxgtlL6ylcLhczZsxgVhY//vgjioqKOhXTWVAikYj4+/uDoiiYTCZIpVLk5+czC9+IiAj2NT2ivr4eS5YswaZNm0BRFL777ju7D91T7t27h6KiIsTExAAAtm/fjhUrVmDw4MFsU6fB8fDwgFQqhVQqhVgsdljKcDgc5nxvSmeOp0wmc7DrbvH29mZXh+DgYAc7W+Hz+X1SaJpm6uxdH/kfQalUIiQkBEOGDHmiEhISAovFAoPBAACg5HI5se2o6vV6uLi44Pz580z3jIyMhEQiYT9Pt1GpVHjllVfsumdaWhp8fX3Zpt2isrISZ8+eteue27dvh5eXl52dWq3G1KlTsX37drvjvSU7Oxt//OMfIRaLf7ktrampCYsXLwZlDQU+aYmLi4NEIoHZbP7limY0Gvt0T43L5YLL5YIQ8ssVzZk8F60X9Fo0o9GIhoYGVFVVoaKiAo2NjTCZTGyzbqHRaKBQKFBVVQWFQgGtVss2eabolWgGgwE6nQ5r165Fbm4uzp8/j0WLFkGtVkOn07HNu6SyshJjx47Fjh07cPr0afz1r39FcHAw6urq2KbPDI8VzWw2Q6VS2ZUbN25g3759WLRoEWJjYxEZGYmVK1fi2LFjPWpxCoUCb7zxBnbu3ImUlBSMGDECr776Kg4dOoTp06ejtLTU4d6dheYqKioc7NRqNdusz+gykkFRFF577TVQrHVdQkIC4uPj7Y7xeDwMGzYM7733Xqd+ExutVovIyEhs2bLFYRXi4eGBjRs3Qi6XOyzGKYpCSEgI83dkZCTWr19vZwPrIr6z1UOfIJfLyciRI0lsbCyJjo4msbGxpK2tzW6nsif84x//IEFBQSQ2NpbExsaSsLAwsnbtWmaH9dy5c8Tf35+EhoaSLVu2PJWd195QXl5ORo0aRaKjo8lju2dPCQgIYLIYu4LD4TDLkv81HitaXV2dQ6mvr2ebMdy7d69bW9dcLhcKhcKh+3WkubnZ4d49KU1NTewq+4THijZjxgxER0czxc/PDytWrEBtbS3bFDqdDocPH+7Wvj1N0zh16hTy8/PZpwAAe/bsgUwms7t3T4qfnx867hP2JV2KRqwZh8HBwUwZOXIkzp07h6VLl6KqqgrWiBZqamqQlJSEmzdvQigUsqtygMvlQiKRICkpCd9++y1Tj9lsxu7du5Geno4RI0bY3bsnRSqVsm/ZZ3Qpmg324jUwMBA3btzAlClT8Ic//AGpqakYO3YslEol3N3dHWbbR+Hi4oKIiAgsW7YM06dPxxtvvIE5c+Zg3bp1GDFihF3ubU+LM+mWaJ1h2+D7/vvvUVJSAi8vL9A03eMH5nK5kMvlqKioQEFBAUpLSxEYGNjr7fD+4ImejM/nw9XVFSKR6IniCOjwvoCzEvH6kicSDVYnVavVOm3QbW9vh1ar7fYqoz/otWhqtRp3797FkCFDEBoaCp1O1+N1Z1dotVr89NNPGD58OEJDQ5lsomeBXolWVlaG5ORkNDU1ITs7GydPnsTmzZuhUqmg0WjY5j1GqVTCy8sLVVVVOHToEE6ePImDBw9CLBajubmZbd4pUqkU165d69IP7Ak6nQ4Wi+W/E01PYwRqtRrjx4/Hjh07mORgGyUlJVi4cCF0Oh0TN+0sRpCamorAwMBOJ422tjYMHjwYBw4cgJubm925yspKzJ49G3q9/rFujVarhZeXF377299i4MCB7NM9QqPRYNeuXSgrK/tvqldPRDObzVAoFLh27VqnoTmLxYIPP/wQOTk5zAdWq9VISUnBn//8Z3A4HDQ2NuI3v/kNampqIJVK7YQzm83QaDTYv38/xo8f36Hm/2Pv3r3YsGEDPD09OxW9I7b3FCwWyxPPxrYJDz3tngaDAeHh4Q45sTY4HA6GDx9ut/bk8/m4desWMx55enoiMzMTUqnUoasRQuDi4tLlu06RkZHg8XiwWCzsUzAYDGhuboZCoUB9fT2MRiM8PDzg6+sLb29vu+Lh4cF8DovFAh6PBzc3Nwc7b29v+Pj42M3qnJ66CrY090ehUqns/hYIBLh16xZOnjwJo9EIWIO7Z86cQVBQkIO9xWJh7DrDNpOyW45arYbRaMSCBQvw5ZdfYs+ePUhMTITZbIbRaLRzfPV6PXQ6HV5++WV89tlnyMzMxKJFi8DhcKDRaB7rKHM8PT3tDnQ0oigK/v7+zPazi4sLysrKUNfFrqqrqyuqqqqYlmBbLi1atAi7du1iXBNPT098/vnn4PP5TIvTarUoLy/vcrzKz88Hl8u1e06tVguxWIy8vDy8//77mDZtGpKSkrBjxw6sWrUKt27dYr5ok8kEtVqNb7/9Fps3b8bMmTMxadIkrF69Grt374ZQKHzsLg03MDDwT4QQUNb3kLhcLtLS0pimS1EUjh49CqlUyjiw169fR1xcXKdLpujoaJhMJnz//fdMfiyXy4WbmxtOnjyJsLAwDB48GFwuF97e3khOTsaZM2dQXl4ODw8P/POf/0RkZKRdnbC28KtXr+L1119HaGgoc19CCFQqFdavX48JEybYtUAul4uYmBjo9XoUFhZCKBRCo9Fg7ty5mD9/PvjWBGl0aCACgQCnT5/uMkDO5fP5f+q4/DEYDHjhhReYBJUhQ4YgICAAX375JXx8fCAUClFWVobvvvsOAQEBcHV1RXl5OTgcDmiaBgC8+OKLaG1txalTpyCTyRjhaJrGgQMHEBwcjOjoaFAUBZlMhtDQUJw4cQK7du3CCy+8wDxcZWUl9Ho9WltbsWXLFmzZsgX+/v4Oqw+1Wo2MjIxOo/YURcHFxYXZfVGpVF0mzAwYMACHDh0Cl8t1GAJscDqOHzweDyaTCRs3bkR5eTlzLC0tDZmZmbh37x7MZjM8PT3R2NiIN998E+Hh4Rg9ejTS0tJQU1PDXLNx40YsW7YMCoWC6aoCgQCBgYH44IMPcOHCBWYTMjExEfn5+UhMTGSe5ezZs4iIiEBYWBgiIiKQk5MDFxcXu9Zhw2QygT3MdISmafD5fOZFW3bv6IhIJIJEIul0orHhIKVEIsHt27cxa9YsVFVVMcdff/11fPHFFygqKmJekx4wYADCwsIQFRWFu3fvIikpCe3t7cw1H3zwAaZMmYLy8nLmIVxcXCCRSJCQkIBLly4xY01wcDBzXV5eHpKSkhAWFobw8HCEhYXB3d29U8FgrbO6upp9mKGhoYFxOzgcTpebqLW1taiurn7kvQCA6+rq+ieJRGKnvkgkglqtxo8//oj4+HjIZDJwOBzExMQgKCgIWVlZDn6SUCiEWq3GrVu3MHnyZPD5fAgEAvz617+GUqlkXsGhKAo8Hg9SqRQ//PADxowZY9et2tvbkZGRwaQ3PQ6KomA0GiEQCDBmzBiHXePa2lq88847MJvN4PP5oCgKCoUCkydPdqhfo9Hg3XffhVqtfqRbhUeJBqsItbW1OH78OGbNmsUMjDExMRAKhcjKyoKfn5/ddTRNo6CgANeuXcPMmTMZ4RISElBcXIzCwkK4ubmBoigIBAK0t7fjo48+QkpKCvOuE4/Hg1wux7Zt2+Dt7e0wfnWGi4sLTpw4AYFAgFGjRjGtRKlUIiUlBdXV1YyzzePxUFpaiqKiIiQnJzPimEwmvP322zh79uxjo1iPFA1W4VpaWlBYWIhx48YxHnx8fDzMZjMuXbrksIcmlUpx584d1NXVYfz48RAIBODz+UhOTkZ1dTWKi4uZFsfn8+Hu7o7c3FzExcUxX8LAgQMRHx+Pb775Bnw+/7HCURQFT09P5ObmIiEhgenqBw4cwPHjx+1ePqMoCjRNo7CwEBKJhJl4Ll++jDVr1iAsLIyxfRQOYxobmUyGgoIC/O53v0NLSwtzfMOGDRg1apTD+EBRFHx8fHDw4EGkp6czPp5YLMaWLVsQGxtrF1ChaRo6nQ4jR45EcXExU09SUhL+8pe/4Pr1693adqKsMzGbzroZRVFMi+8Ie637KBxEM5vN0Ov1UKvVjPft7e2N0tJSrF69mhnoKYpCVlYWpk+fzvwISXt7OzMjBgQEID8/H2vWrGFedPXw8MBXX32FuLg4NDY2MpMDTdOIjIzEkiVLcOfOHeZZXnnlFezcuRMPHjxAQ0MDlEoltFptlzNbf2DXPW2/viIUCjFlyhRQFIXa2loQQuDm5oaLFy+itLQU06ZNA4/Hg0AgwMSJE3Hr1i0EBQXB19cX9fX1UKlUcHFxgVgsxunTp2EwGBAfH88M7rGxsbh8+TJqa2shFAqZrtrc3IxPPvkEaWlpjGM8evRomM1mJCYmYuzYsXj48CFqa2vBteaL2SCEQKfTYfbs2Uz3/Omnn3DhwgWH3RhYVxFjxoxhumdVVRU++eQT8Hg8tLW1dVmYXQ6dTgc3Nzds374dMTExTLP+z3/+gw8//BAVFRUQCoVoaGjAvHnzsGHDBofZB9YMRNsSxd3dHbDGTtPT07FmzRrmA5SWlmLZsmW4f/++XeRIo9Fg0KBBOHLkSKcRJb1ej7Nnz2LlypUQCoVMSoPFYkFLSwsyMzMxYcIEAMCuXbuwefPmTgf2xsZGLF++HCtWrACseSVXrlxhm3UK19XV9U9isRhqtRpbt27Fiy++aJdbIZfLIZfLkZOTA5qmIRaLcezYMRiNRgdbWN2VoUOHoqSkBGVlZRAKhRCLxcjJyUF4eDgiIiLA5/Mhk8kwevRo7N+/H0ajkVlv2nyuzMxMzJ8/3yFmwOPxMHjwYFRXV+P69evMdb1paXFxcUxLE4vFiIiI6FbhwDqOcblch6QWGxMnTsSECROg0+nA4XAwYsQI7N69GyUlJWxTwOr5v/rqq8z4Z1sDrlu3Djk5OcwYFxERgR9++MFuUwAA3N3doVKp7CaGjlAUhZkzZ8JsNvd6fOPz+aisrOzV9RxYfZTY2NhOvxFYHzImJoaJAdhmna52RP38/GAymZhZksfjwdPTEwsWLMCpU6eYhw0ODsagQYPsZkhCCPh8/iOfB9b6ORxOl9tUXUHTNHJzc3H06FHcuHGjR4UDa0u4fft2l4ERtVrNDLyUdZ+psbGRbcbQ2trq0HX5fD6ioqLw8ccf2y232FDWH2bqqv66ujpYrHv2vYHH44GmaaxatQqJiYk9KoxoGo0G165dY9cNWF/V2bRpk93A7O3tjfXr13caWrNYLMjLy2Nmxo7YouZdtRCKoiASiXDw4MFHZhadP38esNbXW3g8Hnx8fBxSGh5XOLDeWCQSYe3atVAqlXYVq1QqvP3224iIiLATQCKRIC8vD0ePHrUTgBCC/Px85OTkdNm9HodEIsG//vUvbNq0yU44Qgg+/fRTbNu2rdvOaF/DfE00TaOiogJTp06FQqFgDDIyMnD58uVON+UGDhyIJUuWID09HdnZ2cjNzcVbb72Fl19+GeJO3rPqKSEhIdi3bx9eeukl7NmzB1999RWWLVuGDRs2QC6Xd2t5ZTQamZhsXxStVmsfjTIajbBYLMjNzUVgYCAIIZg4cSIaGxs7XY7YaG1tZcYo234Uu1va0Ov1EIlEOHfuHFxdXUEIwZtvvon8/PxOvxh0iCpRFAWhUNhp/Z35aXv37sU333zjYPukOIhGCMGpU6cY0RITE6FUKrsUrSf0RrTu0JlozqL3o+gzSF+3qEfxixGNY/0ZxH379uHBgwfQaDROK7+Y7mlDo9E4LdfWxi9ONPTDDwFw0MHDtxU27PNPWjqDbfMkxRZAcVqxtSBiDW1xuVwolUpUVFSguroa9fX14PF4INZE4ictHA4HfD4fdXV1qKioQFVVFbPkYts+q4UCQIKCgkBZW4DFYrEL3Tkj/9VsNtuF3Pz8/ByiSM8yFAAyaNAgRjSwxoSOx/uS/riHs6AAkM52YJ/zaKgjR46Qjt/6cx7P81+16gV9O8L/f8JTFa2zDczu0lW2pLN5aqLdvn0bCQkJmDt3LpPW1R0qKiqQlpaGqVOn2rlG/Qr7Ddr+QKFQEAAkPDycBAUFkfHjx5Pi4mJiMBjYpgwmk4kUFhaScePGkZCQEBIZGUkAkNraWrap03kqLa2mpgahoaGgaRre3t5QKpWYMWMGVq9ebZfnYfPA79+/j5UrV2LWrFlobGyEp6cnRCIRvLy8usxLcxZPZfZUKBRISUlBXV0dk8FoMpnQ1taG5uZmTJw4EX5+flBb/7HDxYsXIZFI7LbQGxoa4OPjgwsXLjAB4/7iqYgGa27vzJkzUVRUBF9fXyanzGKxQK/XM2nvHA4HLi4uzFLOZDKhtrYWCQkJ2L9/v0MEvj/oF9EIIWhvb3eITtXV1eHw4cP4/PPPQVEUk/QC1tKKEAKLxcJkJb322mtYvny5w0saFosFJpPJ+etY9iDX19TX15OUlBQCgBw7dqzTwb6mpoYsXLiQeHp6kuDgYBIcHEyCgoJIUFAQCQwMJEFBQcTX15ekpqaSsrIy9uXEYrGQ7Oxs4uPjQ2bOnEkePnzINulTnNrSDAYDli5diry8PCYjPCMjA4sXL3boVoQQVFdX4/bt22hubmaSiz09PSGXyxEWFga5XO6w46LX6/HRRx8hOzsbNE2jvr4eKSkp2LFjB9Pl+xy2in2JSqUiycnJJCIigsTGxpKYmBgCgKxevZqo1eon+iETi8VCVCoVycjIIAKBgMTExJDY2FgSFRVFRo0aRbRaLfuSPsOpLodUKkVqaiqMRiPa29vB4/EQGxuLw4cPY+7cuThy5IjDS2XdgRCCzMxMJCQk4Pjx4xg6dCh41ncgbt68iVWrVjl1RnVq97TxxRdfYNu2bUzSCawBYIVCgXHjxuGtt97CyJEj4ebmBr71/w50xGQywWg0oqWlBadPn0Z2djaKi4vh6enJiKPT6fDw4UPs3LkT8+fPd+oeXb+IZjKZcPHiRcybNw/u7u6gO/yjrfb2dqhUKvj4+CAiIgLu7u6IjIxkbGpqalBTUwOVSoWSkhK0tLTAzc2NGRPNZjN0Oh1u376NK1eu2GVxOot+Ec1GQUEB1q9fj5KSEkgkErv0U4PBwKRF6K3/1o0QAoFAwLynZEuvt2G2vlTr7++PHTt2YNiwYcw5Z9KvosGa95Gfn4+PP/4YP//8M9zd3cGzJj13B5PJBL1eD4PBgLKyMpw8eRIvvfRSt36qp6/od9FsEELw2Wef4d///jfu3buHpqYmiEQi8K2v4ti6n8lkglarZRxkPp+PuLg4REdH47333uu22H3JUxPNRnt7O5RKJQoKClBYWIjKykq0trbi6tWraGlpwciRIzF8+HCIxWJMnDgRgwcPhlwud+rs+DieumiPwpaE7DQH9Ql4ZkV7lnGqc/tL5bloveC5aL3guWi94LloveD/AYxFYp2awvezAAAAAElFTkSuQmCC;dashed=1;dashPattern=8 8;" vertex="1" parent="1">
          <mxGeometry x="437.31" y="370" width="48.13" height="70" as="geometry" />
        </mxCell>
        <mxCell id="hE5iUYHQlxyRtZsjtgI_-40" value="Account Management&lt;div&gt;(User, Policies,...)&lt;/div&gt;" style="sketch=0;outlineConnect=0;fontColor=#232F3E;gradientColor=none;fillColor=#E7157B;strokeColor=none;dashed=0;verticalLabelPosition=bottom;verticalAlign=top;align=center;html=1;fontSize=12;fontStyle=0;aspect=fixed;pointerEvents=1;shape=mxgraph.aws4.organizations_account2;" vertex="1" parent="1">
          <mxGeometry x="290" y="270" width="50" height="50" as="geometry" />
        </mxCell>
      </root>
    </mxGraphModel>
  </diagram>
</mxfile>
